<?xml version="1.0" encoding="UTF-8" standalone="no"?>
<svg
   xmlns:dc="http://purl.org/dc/elements/1.1/"
   xmlns:cc="http://creativecommons.org/ns#"
   xmlns:rdf="http://www.w3.org/1999/02/22-rdf-syntax-ns#"
   xmlns:svg="http://www.w3.org/2000/svg"
   xmlns="http://www.w3.org/2000/svg"
   width="18"
   height="18"
   viewBox="0 0 18 18"
   version="1.1"
   id="svg947">
  <metadata
     id="metadata953">
    <rdf:RDF>
      <cc:Work
         rdf:about="">
        <dc:format>image/svg+xml</dc:format>
        <dc:type
           rdf:resource="http://purl.org/dc/dcmitype/StillImage" />
        <dc:title></dc:title>
      </cc:Work>
    </rdf:RDF>
  </metadata>
  <defs
     id="defs951" />
  <g
     id="g945"
     transform="matrix(0.43902439,0,0,0.43902439,-1.3170732,-1.7560976)">
    <path
       d="M 23.5,16 A 8.5,8.5 0 1 0 32,24.5 8.51,8.51 0 0 0 23.5,16 Z m 0,14 A 5.5,5.5 0 1 1 29,24.5 5.5062,5.5062 0 0 1 23.5,30 Z"
       fill="black"
       id="path927" />
    <rect
       x="22"
       y="4"
       width="3"
       height="8"
       fill="black"
       id="rect929" />
    <rect
       x="22"
       y="37"
       width="3"
       height="8"
       fill="black"
       id="rect931" />
    <rect
       x="7.6578999"
       y="34.500198"
       width="7.6842999"
       height="2.9997001"
       transform="rotate(-45,11.500006,36.000042)"
       fill="black"
       id="rect933" />
    <rect
       x="31.1579"
       y="11.0002"
       width="7.6842999"
       height="2.9997001"
       transform="rotate(-45,34.999983,12.500032)"
       fill="black"
       id="rect935" />
    <rect
       x="36"
       y="23"
       width="8"
       height="3"
       fill="black"
       id="rect937" />
    <rect
       x="3"
       y="23"
       width="8"
       height="3"
       fill="black"
       id="rect939" />
    <rect
       x="10.0002"
       y="9.1578999"
       width="2.9997001"
       height="7.6842999"
       transform="rotate(-45,11.49996,12.999961)"
       fill="black"
       id="rect941" />
    <rect
       x="33.000198"
       y="32.157902"
       width="2.9997001"
       height="7.6842999"
       transform="rotate(-45,34.499966,35.999946)"
       fill="black"
       id="rect943" />
  </g>
</svg>
