<?xml version="1.0" encoding="UTF-8" standalone="no"?>
<svg
   xmlns:dc="http://purl.org/dc/elements/1.1/"
   xmlns:cc="http://creativecommons.org/ns#"
   xmlns:rdf="http://www.w3.org/1999/02/22-rdf-syntax-ns#"
   xmlns:svg="http://www.w3.org/2000/svg"
   xmlns="http://www.w3.org/2000/svg"
   width="16"
   height="16"
   viewBox="0 0 16 16"
   version="1.1"
   id="svg6">
  <metadata
     id="metadata12">
    <rdf:RDF>
      <cc:Work
         rdf:about="">
        <dc:format>image/svg+xml</dc:format>
        <dc:type
           rdf:resource="http://purl.org/dc/dcmitype/StillImage" />
        <dc:title></dc:title>
      </cc:Work>
    </rdf:RDF>
  </metadata>
  <defs
     id="defs10" />
  <g
     id="Dark/DLT_Icons/Actions/Misc/ic_panorama_fish_eye_white_48dp"
     stroke="none"
     stroke-width="1"
     fill="none"
     fill-rule="evenodd"
     transform="matrix(0.38095238,0,0,0.38095238,-1.1428571,-1.1428571)">
    <path
       d="M 24,3 C 12.402001,3 3,12.402001 3,24 3,35.597999 12.402001,45 24,45 35.597999,45 45,35.597999 45,24 45,12.402001 35.597999,3 24,3 Z m 0,3 c 9.941144,0 18,8.058856 18,18 0,9.941144 -8.058856,18 -18,18 C 14.058856,42 6,33.941144 6,24 6,14.058856 14.058856,6 24,6 Z"
       id="Stroke-1"
       fill="black"
       fill-rule="nonzero" />
  </g>
</svg>
