<?xml version="1.0" encoding="UTF-8" standalone="no"?>
<svg
   xmlns:dc="http://purl.org/dc/elements/1.1/"
   xmlns:cc="http://creativecommons.org/ns#"
   xmlns:rdf="http://www.w3.org/1999/02/22-rdf-syntax-ns#"
   xmlns:svg="http://www.w3.org/2000/svg"
   xmlns="http://www.w3.org/2000/svg"
   width="18"
   height="19.647997"
   viewBox="0 0 18 19.647997"
   version="1.1"
   id="svg1521">
  <metadata
     id="metadata1527">
    <rdf:RDF>
      <cc:Work
         rdf:about="">
        <dc:format>image/svg+xml</dc:format>
        <dc:type
           rdf:resource="http://purl.org/dc/dcmitype/StillImage" />
        <dc:title></dc:title>
      </cc:Work>
    </rdf:RDF>
  </metadata>
  <defs
     id="defs1525" />
  <g
     id="Dark/DLT_Icons/cleanup_48px"
     stroke="none"
     stroke-width="1"
     fill="none"
     fill-rule="evenodd"
     transform="matrix(0.4465454,0,0,0.4465454,-1.7861816,-0.8930908)">
    <path
       d="m 21.974654,25.275323 13.089746,6.54035 -0.208061,0.714644 c -2.264848,7.957576 -6.685238,12.635349 -7.149013,13.109956 L 27.366146,45.981908 26.886701,46 C 25.34886,45.855262 23.78388,45.592924 22.236992,45.222033 v 0 L 21.739455,45.095387 21.54044,44.55262 c -0.108553,-0.352799 -0.199015,-0.642275 0.940797,-2.24344 -0.334706,0.144738 -0.651321,0.289476 -0.940797,0.407076 -1.130766,0.479445 -2.28867,0.805105 -3.157098,0.877474 -0.533722,0.03618 -0.95889,0.02714 -1.320735,-0.153784 -1.139812,-0.506583 -2.361039,-1.12172 -3.690819,-1.872548 -0.307569,-0.189969 -0.479445,-0.479445 -0.506583,-0.805106 -0.01809,-0.298522 -0.04523,-0.615136 0.841289,-1.537841 -0.09046,0.01809 -0.180922,0.03618 -0.271383,0.06332 -0.624183,0.117599 -1.194089,0.208061 -1.646396,0.271384 -0.850336,0.08142 -1.438334,0.07237 -1.8454095,-0.244246 -2.912853,-2.162024 -4.5682942,-4.034573 -4.6316171,-4.115988 v 0 L 4,33.697267 h 1.9901479 c 10.9819981,0 15.3784161,-7.372593 15.5593381,-7.689208 v 0 z m 0.669414,2.351993 c -1.375011,1.926825 -5.825706,7.074071 -14.5552186,7.797761 0.7055979,0.651322 1.6644874,1.483565 2.8495296,2.370086 0.09046,0.009 0.28043,0 0.642275,-0.03619 0.388984,-0.05428 0.922705,-0.135692 1.474519,-0.244245 0.995074,-0.226153 2.017287,-0.515629 2.894761,-0.823198 v 0 l 0.732736,-0.289476 c 0.226153,-0.09951 0.44326,-0.189968 0.642275,-0.271384 v 0 l 7.526378,-2.804299 -6.712227,4.41451 c -0.07237,0.04523 -0.20806,0.135692 -0.398029,0.298522 v 0 l -0.533722,0.44326 c -1.094581,0.913659 -1.763994,1.546888 -2.152978,1.944918 0.967936,0.524675 1.890641,0.976981 2.777161,1.375011 v 0 l 0.08547,-1.45e-4 c 0.06397,-5.79e-4 0.169633,-0.0035 0.321608,-0.01795 0.669413,-0.05428 1.646395,-0.325661 2.614331,-0.741783 0.289476,-0.117599 0.597044,-0.253291 0.904612,-0.388983 1.166951,-0.56086 2.912853,-1.555934 4.523064,-3.12996 v 0 l 1.32978,1.221227 -0.235199,0.28043 c -2.143932,2.587192 -3.17519,3.953158 -3.663681,4.667802 0.958889,0.199014 1.935871,0.352799 2.903807,0.461352 0.995073,-1.094581 4.333094,-5.120108 6.287058,-11.39812 v 0 z m 0.09951,-4.01648 c 0.868428,-1.311689 3.383252,-3.229468 7.046933,-1.935872 0.352799,0.126646 0.714644,0.28043 1.094581,0.470399 v 0 l 2.288671,1.130766 c 0.271383,0.09951 0.569906,0.244245 0.877474,0.452306 1.375011,0.913659 2.840484,2.930945 1.972056,6.431797 v 0 l -0.271384,1.094581 -13.578237,-6.784595 z m 7.336409,0.153784 c -2.541962,-1.275504 -4.206449,-0.597045 -5.083923,0.09046 v 0 l 9.462249,4.731124 c 0.226153,-2.759068 -1.68258,-3.527989 -1.926825,-3.61845 v 0 l -0.108554,-0.04523 z M 40.075864,2 44.309452,4.106843 34.955756,22.82328 34.801972,23.122707 30.577431,21.005913 30.69503,20.769809 Z m 0.814151,2.4234574 -7.888222,15.7683036 0.995074,0.497537 7.879176,-15.7683036 z"
       id="Combined-Shape"
       fill="black" />
  </g>
</svg>
