<?xml version="1.0" encoding="UTF-8" standalone="no"?>
<svg
   xmlns:dc="http://purl.org/dc/elements/1.1/"
   xmlns:cc="http://creativecommons.org/ns#"
   xmlns:rdf="http://www.w3.org/1999/02/22-rdf-syntax-ns#"
   xmlns:svg="http://www.w3.org/2000/svg"
   xmlns="http://www.w3.org/2000/svg"
   id="Layer_1"
   data-name="Layer 1"
   viewBox="0 0 18 18"
   version="1.1"
   width="18"
   height="18">
  <metadata
     id="metadata11">
    <rdf:RDF>
      <cc:Work
         rdf:about="">
        <dc:format>image/svg+xml</dc:format>
        <dc:type
           rdf:resource="http://purl.org/dc/dcmitype/StillImage" />
        <dc:title></dc:title>
      </cc:Work>
    </rdf:RDF>
  </metadata>
  <defs
     id="defs4">
    <style
       id="style2">.cls-1{fill:#000;fill-rule:evenodd;}</style>
  </defs>
  <g
     id="Dark_DLT_additional_Confusion_Matrix_Icon-24px"
     data-name="Dark/DLT/additional/Confusion_Matrix_Icon-24px"
     transform="matrix(0.40909091,0,0,0.40909091,-0.81818182,-0.81818182)">
    <path
       id="Combined-Shape"
       class="cls-1"
       d="M 14,34 V 46 H 2 V 34 Z m 32,0 V 46 H 34 V 34 Z M 30,34 V 46 H 18 V 34 Z M 12,36 H 4 v 8 h 8 z m 16,0 h -8 v 8 h 8 z M 14,18 V 30 H 2 V 18 Z m 32,0 V 30 H 34 V 18 Z M 30,18 V 30 H 18 V 18 Z M 12,20 H 4 v 8 h 8 z m 32,0 h -8 v 8 h 8 z M 14,2 V 14 H 2 V 2 Z M 46,2 V 14 H 34 V 2 Z M 30,2 V 14 H 18 V 2 Z m 14,2 h -8 v 8 h 8 z M 28,4 h -8 v 8 h 8 z" />
  </g>
</svg>
