<?xml version="1.0" encoding="UTF-8"?>
<svg width="16px" height="16px" viewBox="0 0 16 16" version="1.1" xmlns="http://www.w3.org/2000/svg" xmlns:xlink="http://www.w3.org/1999/xlink">
    <!-- Generator: Sketch 64 (93537) - https://sketch.com -->
    <title>Dark/HDevelop/01 - menu/02 - Edit/copy</title>
    <desc>Created with Sketch.</desc>
    <g id="Dark/HDevelop/01---menu/02---Edit/copy" stroke="none" stroke-width="1" fill="none" fill-rule="evenodd">
        <path d="M5,-5.04485342e-13 L5,2 L1.00364161e-13,2 L1.00364161e-13,16 L10.999,16 L10.999,14 L16,14 L16,4.001 L15.99,4.001 L12.074,-5.04485342e-13 L5,-5.04485342e-13 Z M6,1 L10.999,1 L10.999,5 L15,5 L15,13.001 L10.999,13.001 L10.999,7 L10.999,6.01 L10.999,6 L10.99,6 L7.074,2 L6,2 L6,1 Z M11.999,1.354 L14.59,4.001 L11.999,4.001 L11.999,1.354 Z M0.999,3.001 L5,3.001 L6,3.001 L6,7 L9.999,7 L9.999,13.001 L9.999,14 L9.999,15 L0.999,15 L0.999,3.001 Z M7,3.353 L9.59,6 L7,6 L7,3.353 Z" id="Fill-1" fill="#000"></path>
    </g>
</svg>