<?xml version="1.0" encoding="UTF-8" standalone="no"?>
<svg
   xmlns:dc="http://purl.org/dc/elements/1.1/"
   xmlns:cc="http://creativecommons.org/ns#"
   xmlns:rdf="http://www.w3.org/1999/02/22-rdf-syntax-ns#"
   xmlns:svg="http://www.w3.org/2000/svg"
   xmlns="http://www.w3.org/2000/svg"
   xmlns:sodipodi="http://sodipodi.sourceforge.net/DTD/sodipodi-0.dtd"
   xmlns:inkscape="http://www.inkscape.org/namespaces/inkscape"
   width="22"
   height="16"
   viewBox="0 0 22 16"
   version="1.1"
   id="svg6"
   sodipodi:docname="crossline.svg"
   inkscape:version="1.0.1 (3bc2e813f5, 2020-09-07)">
  <metadata
     id="metadata12">
    <rdf:RDF>
      <cc:Work
         rdf:about="">
        <dc:format>image/svg+xml</dc:format>
        <dc:type
           rdf:resource="http://purl.org/dc/dcmitype/StillImage" />
      </cc:Work>
    </rdf:RDF>
  </metadata>
  <defs
     id="defs10" />
  <sodipodi:namedview
     pagecolor="#ffffff"
     bordercolor="#666666"
     borderopacity="1"
     objecttolerance="10"
     gridtolerance="10"
     guidetolerance="10"
     inkscape:pageopacity="0"
     inkscape:pageshadow="2"
     inkscape:window-width="640"
     inkscape:window-height="480"
     id="namedview8"
     showgrid="false"
     inkscape:zoom="17.772374"
     inkscape:cx="10.173809"
     inkscape:cy="2.1717785"
     inkscape:current-layer="svg6" />
  <title
     id="title2">Dark/DLT_Icons/New0221/ic_crosslines_24dp</title>
  <g
     id="Dark/DLT_Icons/New0221/ic_crosslines_24dp"
     stroke="none"
     stroke-width="1"
     fill="none"
     fill-rule="evenodd"
     transform="translate(-1,-4)">
    <path
       d="M 23,4 V 20 H 1 V 4 Z M 22,5 H 5 V 7 H 4 V 8 H 2 v 11 h 2 v -2 h 1 v 2 H 22 V 8 H 20 V 7 h 2 z M 5,13.999 V 16 H 4 V 13.999 Z M 5,11 v 2 H 4 V 11 Z M 5,8 v 2 H 4 V 8 Z M 7.001,7 V 8 H 5 V 7 Z m 9,0 V 8 H 14 V 7 Z M 19,7 V 8 H 17 V 7 Z M 10,7 V 8 H 8 V 7 Z m 3,0 V 8 H 11 V 7 Z M 4,5 H 2 v 2 h 2 z"
       id="Combined-Shape"
       fill="black" />
  </g>
</svg>
