<?xml version="1.0" encoding="UTF-8" standalone="no"?>
<svg
   xmlns:dc="http://purl.org/dc/elements/1.1/"
   xmlns:cc="http://creativecommons.org/ns#"
   xmlns:rdf="http://www.w3.org/1999/02/22-rdf-syntax-ns#"
   xmlns:svg="http://www.w3.org/2000/svg"
   xmlns="http://www.w3.org/2000/svg"
   width="14"
   height="17.090103"
   viewBox="0 0 28 34.180207"
   version="1.1"
   id="svg6">
  <metadata
     id="metadata889">
    <rdf:RDF>
      <cc:Work
         rdf:about="">
        <dc:format>image/svg+xml</dc:format>
        <dc:type
           rdf:resource="http://purl.org/dc/dcmitype/StillImage" />
        <dc:title></dc:title>
      </cc:Work>
    </rdf:RDF>
  </metadata>
  <defs
     id="defs887" />
  <g
     stroke="none"
     stroke-width="1"
     fill="none"
     fill-rule="evenodd"
     transform="matrix(0.75814917,0,0,0.71209211,-4.548895,-2.1362763e-4)"
     id="g882">
    <path
       d="m 40.880991,35 2.051055,2.167 -4.104002,4.333 4.104002,4.333 L 40.880991,48 36.77699,43.667 32.673934,48 30.621932,45.833 34.725934,41.5 30.621932,37.167 32.673934,35 36.77699,39.333 Z M 32.514092,3e-4 v 6.003 h 9.473106 v 3 h -3.791516 v 23.996 H 35.355834 V 9.0033 H 12.628523 v 32.996 h 14.205871 v 3.001 H 9.7886742 V 9.0033 H 6 v -3 h 9.469319 V 3e-4 Z M 21.321586,15.001 v 21 h -3.282581 v -21 z m 8.624903,0 v 21 h -3.245767 v -21 z M 29.676138,2.7506011 H 18.312955 V 6.0033 h 11.363182 z"
       id="Combined-Shape"
       fill="black"
       style="stroke-width:1" />
  </g>
</svg>
