<svg version="1.1" id="Capa_1" xmlns="http://www.w3.org/2000/svg" xmlns:xlink="http://www.w3.org/1999/xlink" x="0px" y="0px" viewBox="0 0 512 512" style="enable-background:new 0 0 512 512;" xml:space="preserve">
<g>
	<g>
		<path style="fill:none;stroke:#000000;stroke-width:15;stroke-linecap:round;stroke-linejoin:round;stroke-miterlimit:10;" d="&#10;&#9;&#9;&#9;M96.11,477.671H35.904v-60.792c0-7.408-6.006-13.414-13.414-13.414S9.075,409.47,9.075,416.879V491.9&#10;&#9;&#9;&#9;c0,6.958,5.641,12.6,12.6,12.6H96.11c7.408,0,13.414-6.006,13.414-13.415C109.525,483.677,103.519,477.671,96.11,477.671z"/>
		<path style="fill:none;stroke:#000000;stroke-width:15;stroke-linecap:round;stroke-linejoin:round;stroke-miterlimit:10;" d="&#10;&#9;&#9;&#9;M96.11,7.5H21.675c-6.959,0-12.6,5.641-12.6,12.6V92.12c0,7.409,6.006,13.414,13.414,13.414s13.414-6.006,13.414-13.414V34.329&#10;&#9;&#9;&#9;h34.901H96.11c7.408,0,13.414-6.006,13.414-13.414v0C109.525,13.506,103.519,7.5,96.11,7.5z"/>
	</g>
	<g>
		<path style="fill:none;stroke:#000000;stroke-width:15;stroke-linecap:round;stroke-linejoin:round;stroke-miterlimit:10;" d="&#10;&#9;&#9;&#9;M490.325,7.5H415.89c-7.408,0-13.414,6.006-13.414,13.414v0c0,7.408,6.006,13.414,13.414,13.414h60.206V92.12&#10;&#9;&#9;&#9;c0,7.409,6.006,13.414,13.414,13.414s13.414-6.006,13.414-13.414V20.1C502.925,13.141,497.284,7.5,490.325,7.5z"/>
		<path style="fill:none;stroke:#000000;stroke-width:15;stroke-linecap:round;stroke-linejoin:round;stroke-miterlimit:10;" d="&#10;&#9;&#9;&#9;M489.51,403.465c-7.409,0-13.414,6.006-13.414,13.414v60.792H415.89c-7.408,0-13.414,6.006-13.414,13.414&#10;&#9;&#9;&#9;c0,7.409,6.006,13.415,13.414,13.415h74.435c6.959,0,12.6-5.641,12.6-12.6v-75.021C502.925,409.47,496.919,403.465,489.51,403.465&#10;&#9;&#9;&#9;z"/>
	</g>
	<g>
		<path style="fill:none;stroke:#000000;stroke-width:15;stroke-linecap:round;stroke-linejoin:round;stroke-miterlimit:10;" d="&#10;&#9;&#9;&#9;M476.096,280.489V230.42c0-7.409,6.006-13.414,13.414-13.414c7.409,0,13.414,6.006,13.414,13.414v50.069&#10;&#9;&#9;&#9;c0,7.409-6.006,13.414-13.414,13.414C482.101,293.903,476.096,287.898,476.096,280.489z"/>
	</g>
	<g>
		<path style="fill:none;stroke:#000000;stroke-width:15;stroke-linecap:round;stroke-linejoin:round;stroke-miterlimit:10;" d="&#10;&#9;&#9;&#9;M9.075,280.489V230.42c0-7.409,6.006-13.414,13.414-13.414s13.414,6.006,13.414,13.414v50.069c0,7.409-6.006,13.414-13.414,13.414&#10;&#9;&#9;&#9;S9.075,287.898,9.075,280.489z"/>
	</g>
	
		<line style="fill:none;stroke:#000000;stroke-width:15;stroke-linecap:round;stroke-linejoin:round;stroke-miterlimit:10;" x1="35.904" y1="255.454" x2="476.096" y2="255.454"/>
	<path style="fill:none;stroke:#000000;stroke-width:15;stroke-linecap:round;stroke-linejoin:round;stroke-miterlimit:10;" d="&#10;&#9;&#9;M390.947,255.454c-2.149-17.278-6.998-34.33-14.579-50.517l0,0c-9.163-19.565-28.818-32.063-50.423-32.063h0&#10;&#9;&#9;c-8.72,0-17.318,2.048-25.102,5.98l0,0c-28.199,14.243-61.486,14.243-89.685,0l0,0c-7.784-3.931-16.382-5.98-25.102-5.98h0&#10;&#9;&#9;c-21.605,0-41.259,12.498-50.423,32.063l0,0c-23.721,50.648-20.691,109.779,8.084,157.737l15.74,26.233&#10;&#9;&#9;c12.298,20.496,34.448,33.038,58.351,33.038h0c10.438,0,20.736-2.401,30.097-7.018l8.097-3.993l8.097,3.993&#10;&#9;&#9;c9.361,4.616,19.659,7.018,30.097,7.018h0c23.903,0,46.053-12.541,58.351-33.038l15.74-26.233&#10;&#9;&#9;c13.417-22.362,21.237-47.153,23.357-72.38"/>
	
		<line style="fill:none;stroke:#000000;stroke-width:15;stroke-linecap:round;stroke-linejoin:round;stroke-miterlimit:10;" x1="256" y1="189.536" x2="256" y2="92.12"/>
	<path style="fill:none;stroke:#000000;stroke-width:15;stroke-linecap:round;stroke-linejoin:round;stroke-miterlimit:10;" d="&#10;&#9;&#9;M318.387,95.223c0,0-21.201-11.805-43.645,10.64s-18.469,51.475-18.469,51.475s29.03,3.975,51.475-18.469&#10;&#9;&#9;S318.387,95.223,318.387,95.223z"/>
</g>
<g>
</g>
<g>
</g>
<g>
</g>
<g>
</g>
<g>
</g>
<g>
</g>
<g>
</g>
<g>
</g>
<g>
</g>
<g>
</g>
<g>
</g>
<g>
</g>
<g>
</g>
<g>
</g>
<g>
</g>
</svg>