<?xml version="1.0" encoding="UTF-8" standalone="no"?>
<svg
   xmlns:dc="http://purl.org/dc/elements/1.1/"
   xmlns:cc="http://creativecommons.org/ns#"
   xmlns:rdf="http://www.w3.org/1999/02/22-rdf-syntax-ns#"
   xmlns:svg="http://www.w3.org/2000/svg"
   xmlns="http://www.w3.org/2000/svg"
   width="20"
   height="13.714286"
   viewBox="0 0 20 13.714286"
   version="1.1"
   id="svg1625">
  <metadata
     id="metadata1631">
    <rdf:RDF>
      <cc:Work
         rdf:about="">
        <dc:format>image/svg+xml</dc:format>
        <dc:type
           rdf:resource="http://purl.org/dc/dcmitype/StillImage" />
        <dc:title></dc:title>
      </cc:Work>
    </rdf:RDF>
  </metadata>
  <defs
     id="defs1629" />
  <g
     id="Dark/DLT_Icons/batchsize_48px"
     stroke="none"
     stroke-width="1"
     fill="none"
     fill-rule="evenodd"
     transform="matrix(0.57142857,0,0,0.57142857,-3.9998857,-6.8571428)">
    <path
       d="m 24.4998,12 c 3.158,0 6.115,0.87 8.675,2.37 -0.529,0.846 -1.058,1.693 -1.587,2.539 C 29.4898,15.698 27.0748,15 24.4998,15 c -7.995,0 -14.5,6.667 -14.5,14.862 0,1.048 0.112,2.099 0.332,3.138 v 0 h 28.336 c 0.221,-1.039 0.332,-2.09 0.332,-3.138 0,-4.746 -2.189,-8.968 -5.577,-11.691 0.683,-0.734 1.367,-1.469 2.051,-2.203 3.975,3.277 6.526,8.284 6.526,13.894 0,1.696 -0.242,3.397 -0.72,5.054 v 0 L 40.9658,36 H 8.0338 l -0.313,-1.084 c -0.479,-1.657 -0.721,-3.358 -0.721,-5.054 0,-9.85 7.851,-17.862 17.5,-17.862 z m 8.3279,5.1944 c -0.98,1.641 -1.96,3.282 -2.94,4.923 -1.602,2.471 -3.204,4.943 -4.807,7.414 -0.455,0.584 -1.354,0.645 -2.007,0.136 -0.654,-0.509 -0.814,-1.396 -0.359,-1.98 2.019,-2.146 4.038,-4.293 6.057,-6.439 v 0 z"
       id="Combined-Shape"
       fill="black" />
  </g>
</svg>
