<?xml version="1.0" encoding="UTF-8" standalone="no"?>
<svg
   xmlns:dc="http://purl.org/dc/elements/1.1/"
   xmlns:cc="http://creativecommons.org/ns#"
   xmlns:rdf="http://www.w3.org/1999/02/22-rdf-syntax-ns#"
   xmlns:svg="http://www.w3.org/2000/svg"
   xmlns="http://www.w3.org/2000/svg"
   version="1.1"
   id="Layer_1"
   x="0px"
   y="0px"
   width="18"
   height="18"
   viewBox="0 0 36 36"
   xml:space="preserve"><metadata
   id="metadata2063"><rdf:RDF><cc:Work
       rdf:about=""><dc:format>image/svg+xml</dc:format><dc:type
         rdf:resource="http://purl.org/dc/dcmitype/StillImage" /><dc:title></dc:title></cc:Work></rdf:RDF></metadata><defs
   id="defs2061" />
<style
   type="text/css"
   id="style14029">
	.st0{fill:#000;}
</style>
<path
   class="st0"
   d="M 36,10.774901 V 3.5749004 H 28.8 V 5.7079008 L 7.2,2.349 V 0 H 0 v 7.2 h 2.565 l 4.32,7.2 H 5.4 v 7.2 h 2.043 l -1.44,7.2 H 3.6 V 36 h 7.2 v -2.439 l 14.45625,-4.86675 v 1.962 h 7.2 v -7.2 h -2.079 L 33.624,10.774901 Z M 30.6,5.3749004 h 3.6 V 8.974901 H 30.6 Z M 5.4,5.4 H 1.8 V 1.8 h 3.6 z m 1.8,10.8 h 3.6 v 3.6 H 7.2 Z M 9,34.2 H 5.4 V 30.6 H 9 Z m 21.65625,-5.34375 h -3.6 v -3.6 h 3.6 z m -3.015,-5.4 h -2.385 v 2.439 L 10.8,30.762 V 28.8 H 8.757 l 1.44,-7.2 H 12.6 V 14.4 H 10.035 L 5.715,7.2 H 7.2 V 5.067 l 21.6,3.367901 v 2.34 h 2.079 z"
   id="path14031"
   style="stroke-width:0.9" />
</svg>
