<?xml version="1.0" encoding="UTF-8" standalone="no"?>
<svg
   xmlns:dc="http://purl.org/dc/elements/1.1/"
   xmlns:cc="http://creativecommons.org/ns#"
   xmlns:rdf="http://www.w3.org/1999/02/22-rdf-syntax-ns#"
   xmlns:svg="http://www.w3.org/2000/svg"
   xmlns="http://www.w3.org/2000/svg"
   width="24.000002"
   height="28.454401"
   viewBox="0 0 24.000002 28.454401"
   version="1.1"
   id="svg1780">
  <metadata
     id="metadata1786">
    <rdf:RDF>
      <cc:Work
         rdf:about="">
        <dc:format>image/svg+xml</dc:format>
        <dc:type
           rdf:resource="http://purl.org/dc/dcmitype/StillImage" />
        <dc:title></dc:title>
      </cc:Work>
    </rdf:RDF>
  </metadata>
  <defs
     id="defs1784" />
  <g
     id="Dark/DLT_Icons/DEXTR_Tool_48px"
     stroke="none"
     stroke-width="1"
     fill="none"
     fill-rule="evenodd"
     transform="matrix(0.63941901,0,0,0.63941901,-3.1970951,-1.2785823)">
    <path
       d="m 20,35.5 v 11 H 5 v -11 z m -1,1 H 6 v 9 h 13 z m -7.2781,0.7883 2.529,7.168 h -1.631 l -0.517,-1.699 h -2.603 l -0.517,1.699 h -1.631 l 2.519,-7.168 z m 4.9411,0.0287 v 7.139 h -1.514 v -7.139 z m -5.8591,1.0793 c -0.108,0.417 -0.415,1.447 -0.923,3.091 v 0 h 1.86 c -0.478,-1.54 -0.748,-2.41 -0.807,-2.612 -0.061,-0.202 -0.104,-0.362 -0.13,-0.479 z m 25.984732,-9.532792 0.06677,0.009 5.42,1.355 c 0.142,0.034 0.244,0.156 0.257,0.291 0.014,0.143 -0.061,0.278 -0.182,0.346 v 0 l -2.609,1.3 -1.307,2.609 c -0.054,0.115 -0.176,0.189 -0.305,0.189 -0.007,0 -0.02,0 -0.034,-0.006 -0.142,-0.014 -0.257,-0.115 -0.291,-0.251 v 0 l -1.355,-5.42 c -0.027,-0.115 0.007,-0.237 0.088,-0.325 0.081,-0.081 0.21,-0.115 0.318,-0.088 z M 29.057,32.143 v 1 h -1.986 v -1 z m 3.974,0 v 1 h -1.986 v -1 z m -7.946,0 v 1 h -1.986 v -1 z M 12.666,31.6426 v 0.5 h 0.5 v 1 h -1.5 v -1.5 z m 8.4451,-29.643 v 0.879 c 0.677,-0.054 1.341,-0.104 1.987,-0.141 v 0 -0.738 h 1.987 v 0.676 c 0.665,-0.006 1.327,0.013 1.986,0.054 v 0 -0.73 h 1.986 v 0.938 c 1.196,0.182 2.413,0.461 3.696,0.899 3.21,1.098 5.745,1.965 6.913,4.482 0.123,0.266 0.218,0.535 0.294,0.809 v 0 h 0.53 v 1.877 h -0.342 c -0.028,0.576 -0.121,1.195 -0.273,1.876 v 0 h 0.615 v 1.876 h -1 v -0.392 c -0.347,1.193 -0.814,2.566 -1.367,4.191 -1.001,2.942 -1.503,4.419 -2.512,5.806 -2.47,3.391 -5.872,4.66 -9.162,5.886 -2.241,0.835 -4.058,1.51 -5.574,1.895 v 0 h 0.237 v 1 h -1.986 v -0.686 c -0.205,0.019 -0.407,0.035 -0.599,0.035 -0.501,0 -0.96,-0.067 -1.388,-0.205 v 0 0.856 h -1.987 v -1 h 1.639 c -0.276,-0.121 -0.543,-0.263 -0.794,-0.456 -1.761,-1.352 -1.462,-3.385 -1.083,-5.959 0.366,-2.482 0.82,-5.571 -0.076,-9.652 -0.472,-2.145 -1.176,-3.873 -1.742,-5.263 -0.153,-0.375 -0.296,-0.732 -0.43,-1.083 v 0 1.275 h -1 v -1.876 h 0.777 c -0.229,-0.661 -0.382,-1.282 -0.423,-1.877 v 0 h -0.354 v -1.876 h 0.744 c 0.068,-0.126 0.125,-0.253 0.213,-0.378 1.052,-1.488 3.175,-1.673 7.018,-1.998 v 0 h -0.516 v -1 z m 10.995,3.73 c -4.165,-1.425 -7.558,-1.138 -12.252,-0.741 -2.948,0.25 -5.079,0.429 -5.597,1.163 -0.547,0.775 -0.161,1.814 0.69,3.906 0.596,1.46 1.336,3.276 1.844,5.588 0.975,4.439 0.471,7.869 0.101,10.373 -0.341,2.327 -0.471,3.473 0.322,4.081 1.276,0.978 4.009,-0.039 8.536,-1.727 3.152,-1.173 6.129,-2.284 8.244,-5.189 0.83,-1.141 1.3,-2.521 2.236,-5.272 1.6,-4.705 2.404,-7.065 1.621,-8.751 -0.808,-1.743 -2.878,-2.451 -5.745,-3.431 z M 12.666,27.891 v 1.876 h -1 v -1.876 z m 0,-3.753 v 1.877 h -1 v -1.877 z m 27.824,0 v 1.876 h -1 V 24.138 Z M 12.666,20.386 v 1.876 h -1 v -1.876 z m 27.824,0 v 1.876 h -1 V 20.386 Z M 12.666,16.633 v 1.877 h -1 v -1.877 z m 27.824,0 v 1.877 h -1 V 16.633 Z M 27,15.5 v 2 h -2 v -2 z M 12.666,12.881 v 1.876 h -1 V 12.881 Z M 40.49,5.376 v 1.876 h -1 V 5.376 Z M 13.166,2 v 1 h -0.5 v 0.5 h -1 V 2 Z m 27.3242,0 v 1.5 h -1 V 3 h -0.5 V 2 Z M 17.139,2 V 3 H 15.153 V 2 Z M 37.004,2 V 3 H 35.018 V 2 Z M 33.03,2 V 3 H 31.044 V 2 Z"
       id="Combined-Shape"
       fill="black" />
  </g>
</svg>
