<?xml version="1.0" encoding="UTF-8" standalone="no"?>
<svg
   xmlns:dc="http://purl.org/dc/elements/1.1/"
   xmlns:cc="http://creativecommons.org/ns#"
   xmlns:rdf="http://www.w3.org/1999/02/22-rdf-syntax-ns#"
   xmlns:svg="http://www.w3.org/2000/svg"
   xmlns="http://www.w3.org/2000/svg"
   width="16.373829"
   height="18"
   viewBox="0 0 16.373829 18"
   version="1.1"
   id="svg1653">
  <metadata
     id="metadata1659">
    <rdf:RDF>
      <cc:Work
         rdf:about="">
        <dc:format>image/svg+xml</dc:format>
        <dc:type
           rdf:resource="http://purl.org/dc/dcmitype/StillImage" />
        <dc:title></dc:title>
      </cc:Work>
    </rdf:RDF>
  </metadata>
  <defs
     id="defs1657" />
  <g
     id="Dark/DLT_Icons/drawregion_tool_48px"
     stroke="none"
     stroke-width="1"
     fill="none"
     fill-rule="evenodd"
     transform="matrix(0.42555085,0,0,0.42555085,-2.1277543,-1.2766525)">
    <path
       d="m 14.567681,30.959118 c 2.144,-0.102 4.24,0.977 5.152,2.627 2.101,3.797 -2.68,8.039 -3.233,8.511 -1.998,1.704 -4.15,2.254 -5.721,2.656 -1.1330004,0.289 -2.2710004,0.545 -3.2410004,0.545 -0.977,0 -1.784,-0.259 -2.246,-1.002 -0.731,-1.173 0.142,-2.226 0.721,-2.923 0.426,-0.514 0.956,-1.153 1.442,-2.073 0.516,-0.975 0.628,-1.589 0.747,-2.239 l 0.029665,-0.161687 c 0.1415265,-0.761695 0.3392687,-1.626647 1.1363354,-2.723313 1.486,-2.039 3.24,-3.121 5.213,-3.217 z m 20.7225,-26.5321002 c 1.417,-1.689 3.945,-1.911 5.636,-0.493 v 0 l 1.124,0.942 c 1.689,1.418 1.91,3.947 0.493,5.6360002 v 0 l -17.088,20.365 c -0.688,0.819 -1.651,1.321 -2.716,1.414 -0.119,0.01 -0.238,0.016 -0.355,0.016 -0.939,0 -1.838,-0.327 -2.565,-0.937 v 0 l -1.124,-0.943 c -0.818,-0.686 -1.32,-1.651 -1.414,-2.715 -0.093,-1.065 0.234,-2.102 0.921,-2.92 v 0 z m 3.065,1.572 c -0.285,0 -0.569,0.121 -0.766,0.356 v 0 l -17.088,20.3660002 c -0.172,0.204 -0.254,0.464 -0.231,0.73 0.024,0.265 0.149,0.506 0.354,0.678 v 0 h 0.001 l 1.123,0.943 c 0.204,0.172 0.455,0.255 0.729,0.23 0.266,-0.023 0.508,-0.149 0.679,-0.353 v 0 l 17.088,-20.3650002 c 0.354,-0.422 0.3,-1.055 -0.122,-1.409 v 0 l -1.124,-0.943 c -0.188,-0.157 -0.415,-0.233 -0.643,-0.233 z"
       id="Combined-Shape"
       fill="black" />
  </g>
</svg>
