<?xml version="1.0" encoding="UTF-8" standalone="no"?>
<svg
   xmlns:dc="http://purl.org/dc/elements/1.1/"
   xmlns:cc="http://creativecommons.org/ns#"
   xmlns:rdf="http://www.w3.org/1999/02/22-rdf-syntax-ns#"
   xmlns:svg="http://www.w3.org/2000/svg"
   xmlns="http://www.w3.org/2000/svg"
   width="18"
   height="16.940376"
   viewBox="0 0 18 16.940376"
   version="1.1"
   id="svg1984">
  <metadata
     id="metadata1990">
    <rdf:RDF>
      <cc:Work
         rdf:about="">
        <dc:format>image/svg+xml</dc:format>
        <dc:type
           rdf:resource="http://purl.org/dc/dcmitype/StillImage" />
        <dc:title></dc:title>
      </cc:Work>
    </rdf:RDF>
  </metadata>
  <defs
     id="defs1988" />
  <g
     id="Dark/DLT_Icons/drawpixelregion_48px"
     stroke="none"
     stroke-width="1"
     fill="none"
     fill-rule="evenodd"
     transform="matrix(0.50437808,0,0,0.50437808,-3.0262611,-3.5306465)">
    <path
       d="m 14.7412,7.3686606 c 5.306,-0.448 9.495,-0.809 14.616,0.942 3.617,1.241 6.468,2.2170004 7.805,5.0950004 0.258,0.556 0.419,1.122 0.502,1.716 v 0 h -2.689 c -0.051,-0.213 -0.117,-0.416 -0.206,-0.607 -0.862,-1.857 -3.009,-2.587 -6.274,-3.705 -4.585,-1.5750004 -8.342,-1.2500004 -13.534,-0.8180004 -3.106,0.2640004 -5.552,0.4750004 -6.08,1.2140004 -0.48048,0.6732 -0.2105664,1.619763 0.4846787,3.378052 l 0.1999134,0.500064 v 0 L 9.6732,15.349661 c 0.669,1.628 1.496,3.661 2.059,6.248 1.1,4.972 0.537,8.808 0.123,11.615 -0.396,2.693 -0.475,3.758 0.273,4.339 1.329,1.02 4.497,-0.159 9.301,-1.954 1.256,-0.468 2.486,-0.93 3.657,-1.476 v 0 h 5.008 c -2.36,1.93 -5.087,2.96 -7.75,3.957 -3.951,1.47 -6.731,2.508 -8.887,2.508 -1.127,0 -2.077,-0.281 -2.93,-0.941 -2.06,-1.575 -1.699,-4.004 -1.285,-6.82 0.405,-2.745 0.906,-6.159 -0.079,-10.665 -0.528,-2.367 -1.303,-4.276 -1.936,-5.816 -1.021,-2.508 -1.901,-4.681 -0.502,-6.6700004 1.232,-1.734 3.643,-1.936 8.008,-2.306 v 0 L 14.835985,8.548 Z M 33.8029,25.094161 c 1.097,-0.052 2.169,0.5 2.635,1.344 1.075,1.942 -1.371,4.112 -1.654,4.353 -1.021,0.872 -2.122,1.153 -2.926,1.358 -0.579,0.148 -1.161,0.279 -1.657,0.279 -0.5,0 -0.913,-0.132 -1.149,-0.512 -0.374,-0.6 0.073,-1.139 0.368,-1.496 0.218,-0.262 0.489,-0.589 0.738,-1.06 0.264,-0.498 0.321,-0.812 0.382,-1.145 0.075,-0.41 0.16,-0.874 0.597,-1.475 0.76,-1.044 1.657,-1.597 2.666,-1.646 z m 7.8846,-10.3359 v 2.388 l -4.85,5.78 c -0.088,0.105 -0.13,0.237 -0.118,0.373 0.012,0.136 0.076,0.259 0.181,0.347 v 0 h 10e-4 l 0.574,0.483 c 0.104,0.087 0.233,0.13 0.373,0.117 0.136,-0.012 0.26,-0.076 0.347,-0.18 v 0 l 3.492,-4.162 v 2.388 l -2.316,2.76 c -0.351,0.419 -0.844,0.675 -1.389,0.723 -0.061,0.005 -0.122,0.008 -0.182,0.008 -0.48,0 -0.94,-0.167 -1.311,-0.479 v 0 l -0.575,-0.482 c -0.419,-0.351 -0.676,-0.845 -0.724,-1.389 -0.047,-0.545 0.12,-1.075 0.471,-1.494 v 0 z"
       id="Combined-Shape"
       fill="black" />
  </g>
</svg>
