<?xml version="1.0" encoding="UTF-8" standalone="no"?>
<svg
   xmlns:dc="http://purl.org/dc/elements/1.1/"
   xmlns:cc="http://creativecommons.org/ns#"
   xmlns:rdf="http://www.w3.org/1999/02/22-rdf-syntax-ns#"
   xmlns:svg="http://www.w3.org/2000/svg"
   xmlns="http://www.w3.org/2000/svg"
   id="Layer_1"
   data-name="Layer 1"
   viewBox="0 0 16 17.297297"
   version="1.1"
   width="16"
   height="17.297297">
  <metadata
     id="metadata19">
    <rdf:RDF>
      <cc:Work
         rdf:about="">
        <dc:format>image/svg+xml</dc:format>
        <dc:type
           rdf:resource="http://purl.org/dc/dcmitype/StillImage" />
        <dc:title></dc:title>
      </cc:Work>
    </rdf:RDF>
  </metadata>
  <defs
     id="defs4">
    <style
       id="style2">.cls-1{fill:#000;fill-rule:evenodd;}</style>
  </defs>
  <g
     transform="matrix(0.43243243,0,0,0.43243243,-3.4594594,-1.7297297)">
    <path
       id="Combined-Shape"
       class="cls-1"
       d="M 24.51,4 10.1,20 H 18 V 35 H 28.07 A 8.88,8.88 0 0 1 31,29.32 V 20 h 7.91 z M 28,17 V 32 H 21 V 17 H 16.92 L 24.51,8.72 32.1,17 Z m 0.54,22 H 8 v 3 h 22.37 a 8.7,8.7 0 0 1 -1.82,-3 z" />
  </g>
  <polygon
     class="cls-1"
     points="38,37 38,40 36,40 36,37 33,37 33,35 36,35 36,32 38,32 38,35 41,35 41,37 "
     id="polygon8"
     transform="matrix(0.43243243,0,0,0.43243243,-3.4594594,-1.7297297)" />
  <path
     class="cls-1"
     d="M 12.540541,10.378378 A 3.4594595,3.4594595 0 1 0 16,13.837838 3.4594595,3.4594595 0 0 0 12.540541,10.378378 Z m 0,6.054054 a 2.5945946,2.5945946 0 1 1 2.594594,-2.594594 2.5945946,2.5945946 0 0 1 -2.594594,2.594594 z"
     id="path10"
     style="stroke-width:0.432432" />
  <polygon
     class="cls-1"
     points="38,40 36,40 36,37 33,37 33,35 36,35 36,32 38,32 38,35 41,35 41,37 38,37 "
     id="polygon12"
     transform="matrix(0.43243243,0,0,0.43243243,-3.4594594,-1.7297297)" />
  <polygon
     class="cls-1"
     points="38,40 36,40 36,37 33,37 33,35 36,35 36,32 38,32 38,35 41,35 41,37 38,37 "
     id="polygon14"
     transform="matrix(0.43243243,0,0,0.43243243,-3.4594594,-1.7297297)" />
</svg>
