<svg clip-rule="evenodd" fill-rule="evenodd" height="512" stroke-linejoin="round" stroke-miterlimit="2" viewBox="0 0 33 32" width="512" xmlns="http://www.w3.org/2000/svg"><path d="m29.102 7.91c-.045-.084-.1-.165-.167-.239l-.02-.023-.021-.021-.01-.011s-7-7-7-7l-.023-.022-.024-.022-.008-.007c-.074-.067-.155-.122-.239-.167-.176-.095-.377-.148-.59-.148h-16c-.69 0-1.25.56-1.25 1.25v29c0 .69.56 1.25 1.25 1.25h23c.69 0 1.25-.56 1.25-1.25v-22c0-.213-.053-.414-.148-.59zm-9.352.59c0 .69.56 1.25 1.25 1.25h5.75v19.5h-20.5v-26.5h13.5zm2.5-1.25h2.732l-2.732-2.732z"/></svg>