<?xml version="1.0" encoding="UTF-8" standalone="no"?>
<svg
   xmlns:dc="http://purl.org/dc/elements/1.1/"
   xmlns:cc="http://creativecommons.org/ns#"
   xmlns:rdf="http://www.w3.org/1999/02/22-rdf-syntax-ns#"
   xmlns:svg="http://www.w3.org/2000/svg"
   xmlns="http://www.w3.org/2000/svg"
   width="18"
   height="17.44117"
   viewBox="0 0 18 17.44117"
   version="1.1"
   id="svg2456">
  <metadata
     id="metadata2462">
    <rdf:RDF>
      <cc:Work
         rdf:about="">
        <dc:format>image/svg+xml</dc:format>
        <dc:type
           rdf:resource="http://purl.org/dc/dcmitype/StillImage" />
        <dc:title></dc:title>
      </cc:Work>
    </rdf:RDF>
  </metadata>
  <defs
     id="defs2460" />
  <g
     id="Dark/DLT_Icons/service_48px"
     stroke="none"
     stroke-width="1"
     fill="none"
     fill-rule="evenodd"
     transform="matrix(0.40494938,0,0,0.40494938,-0.80989876,-0.80989876)">
    <path
       d="m 46.45,34.61 -2.23,3.15 -3.54,5 -1.64,2.31 -1.63,-2.31 -3.54,-5 -2.24,-3.15 z m -3.87,2 H 35.5 l 3.54,5 z M 20,2 c 9.93,0 18,8.08 18,18 0,9.93 -8.07,18 -18,18 C 10.08,38 2,29.93 2,20 2,10.08 10.08,2 20,2 Z m 0,3 C 11.72,5 5,11.72 5,20 5,28.29 11.72,35 20,35 28.29,35 35,28.29 35,20 35,11.72 28.29,5 20,5 Z m 1.5,22.27 v 3.53 h -3 V 27.27 Z M 20,9.71 c 3.59,0 6.5,2.76 6.5,6.15 0,2.9 -2.14,5.34 -5,5.99 v 0 3.65 h -3 V 19.01 H 20 c 1.93,0 3.5,-1.41 3.5,-3.15 0,-1.74 -1.57,-3.15 -3.5,-3.15 -2,0 -3.5,1.85 -3.5,3.5 v 0 h -3 c 0,-3.52 2.98,-6.5 6.5,-6.5 z"
       id="Combined-Shape"
       fill="black" />
  </g>
</svg>
