<?xml version="1.0" encoding="UTF-8" standalone="no"?>
<svg
   xmlns:dc="http://purl.org/dc/elements/1.1/"
   xmlns:cc="http://creativecommons.org/ns#"
   xmlns:rdf="http://www.w3.org/1999/02/22-rdf-syntax-ns#"
   xmlns:svg="http://www.w3.org/2000/svg"
   xmlns="http://www.w3.org/2000/svg"
   width="18"
   height="15.428572"
   viewBox="0 0 18 15.428571"
   version="1.1"
   id="svg6">
  <metadata
     id="metadata12">
    <rdf:RDF>
      <cc:Work
         rdf:about="">
        <dc:format>image/svg+xml</dc:format>
        <dc:type
           rdf:resource="http://purl.org/dc/dcmitype/StillImage" />
        <dc:title></dc:title>
      </cc:Work>
    </rdf:RDF>
  </metadata>
  <defs
     id="defs10" />
  <g
     id="Dark/DLT_Icons/Actions/Content/ic_image_black_48dp"
     stroke="none"
     stroke-width="1"
     fill="none"
     fill-rule="evenodd"
     transform="matrix(0.42857143,0,0,0.42857143,-1.2857143,-2.5714286)">
    <path
       d="M 45,6 V 42 H 3 V 6 Z M 34.5,24.621 22.692,36.429 13.599,30.369 6,36.702 V 39 H 42 V 32.121 Z M 42,9 H 6 v 23.799 l 7.401,-6.168 8.91,5.937 12.189,-12.189 7.5,7.5 z m -27,3 c 3.312,0 6,2.688 6,6 0,3.312 -2.688,6 -6,6 -3.312,0 -6,-2.688 -6,-6 0,-3.312 2.688,-6 6,-6 z m 0,3 c -1.653,0 -3,1.344 -3,3 0,1.656 1.347,3 3,3 1.653,0 3,-1.344 3,-3 0,-1.656 -1.347,-3 -3,-3 z"
       id="Combined-Shape"
       fill="black" />
  </g>
</svg>
