<?xml version="1.0" encoding="UTF-8" standalone="no"?>
<svg
   xmlns:dc="http://purl.org/dc/elements/1.1/"
   xmlns:cc="http://creativecommons.org/ns#"
   xmlns:rdf="http://www.w3.org/1999/02/22-rdf-syntax-ns#"
   xmlns:svg="http://www.w3.org/2000/svg"
   xmlns="http://www.w3.org/2000/svg"
   width="24"
   height="24"
   viewBox="0 0 24 24"
   version="1.1"
   id="svg6">
  <metadata
     id="metadata12">
    <rdf:RDF>
      <cc:Work
         rdf:about="">
        <dc:format>image/svg+xml</dc:format>
        <dc:type
           rdf:resource="http://purl.org/dc/dcmitype/StillImage" />
        <dc:title></dc:title>
      </cc:Work>
    </rdf:RDF>
  </metadata>
  <defs
     id="defs10" />
  <g
     id="Dark/DLT/additional/error"
     stroke="none"
     stroke-width="1"
     fill="none"
     fill-rule="evenodd"
     transform="matrix(0.58536585,0,0,0.58536585,-1.7560975,-1.7560975)">
    <path
       d="M 23.5,3 C 34.821856,3 44,12.178144 44,23.5 44,34.821856 34.821856,44 23.5,44 12.178144,44 3,34.821856 3,23.5 3,12.178144 12.178144,3 23.5,3 Z m 0,2.9285714 C 13.79555,5.9285714 5.9285714,13.79555 5.9285714,23.5 5.9285714,33.20445 13.79555,41.071429 23.5,41.071429 33.20445,41.071429 41.071429,33.20445 41.071429,23.5 41.071429,13.79555 33.20445,5.9285714 23.5,5.9285714 Z M 25,21 V 35 H 22 V 21 Z m 0,-7 v 3 h -3 v -3 z"
       id="Combined-Shape"
       fill="black"
       transform="matrix(1,0,0,-1,0,47)" />
  </g>
  <path
     style="opacity:1;fill:#ffc400;stroke-width:0.134983;fill-opacity:1"
     d="M 10.994112,22.224598 C 9.6553641,22.08752 8.2248959,21.64379 7.0758659,21.009162 2.9998913,18.757934 0.93437564,14.099988 2.0173299,9.6016526 2.4618685,7.7551444 3.3938761,6.0952015 4.7443396,4.7447378 7.4041944,2.0848829 11.228841,1.1012531 14.868945,2.1408724 c 1.22151,0.348865 2.50124,1.0130639 3.535881,1.8351746 0.449785,0.3573925 1.250527,1.152031 1.584108,1.5720341 1.301114,1.6381936 2.050327,3.5008722 2.240958,5.5714289 0.05543,0.602071 0.0205,1.777304 -0.07059,2.375 -0.266789,1.750536 -0.90943,3.274391 -1.9936,4.727303 -0.409823,0.549208 -1.395079,1.534464 -1.944288,1.944287 -1.44931,1.081483 -2.972494,1.724082 -4.727302,1.994347 -0.534966,0.08239 -1.96378,0.119057 -2.5,0.06415 z m 1.910714,-5.53366 v -0.892857 h -0.892857 -0.892857 v 0.892857 0.892857 h 0.892857 0.892857 z m 0,-7.3214283 V 5.2623669 h -0.892857 -0.892857 v 4.1071428 4.1071433 h 0.892857 0.892857 z"
     id="path33" />
</svg>
