<?xml version="1.0" encoding="UTF-8" standalone="no"?>
<svg
   xmlns:dc="http://purl.org/dc/elements/1.1/"
   xmlns:cc="http://creativecommons.org/ns#"
   xmlns:rdf="http://www.w3.org/1999/02/22-rdf-syntax-ns#"
   xmlns:svg="http://www.w3.org/2000/svg"
   xmlns="http://www.w3.org/2000/svg"
   xmlns:sodipodi="http://sodipodi.sourceforge.net/DTD/sodipodi-0.dtd"
   xmlns:inkscape="http://www.inkscape.org/namespaces/inkscape"
   width="14.33"
   height="16"
   viewBox="0 0 14.33 16"
   version="1.1"
   id="svg8"
   sodipodi:docname="prof_profiler.svg"
   inkscape:version="1.0.1 (3bc2e813f5, 2020-09-07)">
  <metadata
     id="metadata14">
    <rdf:RDF>
      <cc:Work
         rdf:about="">
        <dc:format>image/svg+xml</dc:format>
        <dc:type
           rdf:resource="http://purl.org/dc/dcmitype/StillImage" />
        <dc:title></dc:title>
      </cc:Work>
    </rdf:RDF>
  </metadata>
  <defs
     id="defs12" />
  <sodipodi:namedview
     pagecolor="#ffffff"
     bordercolor="#666666"
     borderopacity="1"
     objecttolerance="10"
     gridtolerance="10"
     guidetolerance="10"
     inkscape:pageopacity="0"
     inkscape:pageshadow="2"
     inkscape:window-width="640"
     inkscape:window-height="480"
     id="namedview10"
     showgrid="false"
     fit-margin-top="0"
     fit-margin-left="0"
     fit-margin-right="0"
     fit-margin-bottom="0"
     inkscape:zoom="63"
     inkscape:cx="8.0002"
     inkscape:cy="8"
     inkscape:current-layer="svg8" />
  <!-- Generator: Sketch 64 (93537) - https://sketch.com -->
  <desc
     id="desc4">Created with Sketch.</desc>
  <g
     id="Light/HDevelop/01---menu/03---Execute/part_profiler/prof_profiler"
     stroke="none"
     stroke-width="1"
     fill="none"
     fill-rule="evenodd"
     transform="translate(2e-4)">
    <path
       d="m 8.9998,0 v 1 h -1 v 1.08 c 1.36,0.191 2.58,0.771 3.57,1.62 v 0 l 0.64,-0.64 -0.71,-0.709 0.71,-0.711 2.12,2.12 -0.7,0.71 -0.71,-0.71 -0.64,0.639 c 1.07,1.231 1.72,2.841 1.72,4.601 0,3.86 -3.13,7 -7,7 -3.86,0 -7,-3.14 -7,-7 0,-3.53 2.61,-6.44 6,-6.92 v 0 V 1 h -1 V 0 Z m -1.99,3 h -0.01 c -3.31,0 -6,2.69 -6,6 0,3.3 2.7,6 6,6 3.31,0 6,-2.7 6,-6 0,-3.31 -2.68,-6 -5.99,-6 z m 3.14,2.14 0.71,0.711 -2.51,2.5 c 0.1,0.199 0.15,0.42 0.15,0.649 0,0.819 -0.67,1.5 -1.5,1.5 -0.82,0 -1.5,-0.681 -1.5,-1.5 0,-0.83 0.68,-1.5 1.5,-1.5 0.24,0 0.45,0.05 0.65,0.149 v 0 z m -3.15,3.36 c -0.27,0 -0.5,0.22 -0.5,0.5 0,0.271 0.23,0.5 0.5,0.5 0.28,0 0.5,-0.229 0.5,-0.5 0,-0.28 -0.22,-0.5 -0.5,-0.5 z"
       id="Combined-Shape"
       fill="black" />
  </g>
</svg>
