<?xml version="1.0" encoding="UTF-8" standalone="no"?>
<svg
   xmlns:dc="http://purl.org/dc/elements/1.1/"
   xmlns:cc="http://creativecommons.org/ns#"
   xmlns:rdf="http://www.w3.org/1999/02/22-rdf-syntax-ns#"
   xmlns:svg="http://www.w3.org/2000/svg"
   xmlns="http://www.w3.org/2000/svg"
   width="18"
   height="18.361473"
   viewBox="0 0 18 18.361473"
   version="1.1"
   id="svg1283">
  <metadata
     id="metadata1289">
    <rdf:RDF>
      <cc:Work
         rdf:about="">
        <dc:format>image/svg+xml</dc:format>
        <dc:type
           rdf:resource="http://purl.org/dc/dcmitype/StillImage" />
        <dc:title></dc:title>
      </cc:Work>
    </rdf:RDF>
  </metadata>
  <defs
     id="defs1287" />
  <g
     id="Dark/DLT_Icons/newlabelregion_48px"
     stroke="none"
     stroke-width="1"
     fill="none"
     fill-rule="evenodd"
     transform="matrix(0.4229851,0,0,0.4229851,-1.2689553,-0.8459702)">
    <path
       d="m 39.55469,30.409265 v 6 h 6 v 3 h -6 v 6 h -3 v -6 h -6 v -3 h 6 v -6 z m -26.6204,-27.9897 c 6.03,-0.51 10.79,-0.92 16.61,1.07 4.11,1.41 7.35,2.52 8.87,5.79 1.45,3.13 0.32,6.47 -1.94,13.11 -1.27,3.75 -1.91,5.62 -3.21,7.4 -3.16,4.35 -7.5,5.96 -11.69,7.53 -4.49,1.67 -7.65,2.85 -10.1,2.85 -1.28,0 -2.3599999,-0.32 -3.3299999,-1.07 -2.34,-1.79 -1.93,-4.55 -1.46,-7.75 0.46,-3.12 1.03,-7 -0.09,-12.12 -0.6,-2.69 -1.48,-4.86 -2.2,-6.61 -1.16,-2.85 -2.16,-5.32 -0.57,-7.58 1.4,-1.97 4.14,-2.2 9.0999999,-2.62 v 0 L 13.05,3.858 Z m 15.63,3.91 c -5.21,-1.79 -9.48,-1.42 -15.38,-0.93 -3.5299999,0.3 -6.3099999,0.54 -6.9099999,1.38 -0.62,0.87 -0.14,2.14 0.9,4.71 0.76,1.85 1.7,4.16 2.34,7.1 1.2499999,5.65 0.6099999,10.01 0.14,13.2 -0.45,3.06 -0.54,4.27 0.31,4.93 1.5099999,1.16 5.1099999,-0.18 10.5699999,-2.22 3.94,-1.47 7.68,-2.86 10.31,-6.47 1.02,-1.41 1.61,-3.15 2.79,-6.6 2,-5.89 3.01,-8.85 2.06,-10.89 -0.98,-2.11 -3.42,-2.94 -7.13,-4.21 z"
       id="Combined-Shape"
       fill="black" />
  </g>
</svg>
