<?xml version="1.0" encoding="UTF-8" standalone="no"?>
<svg
   xmlns:dc="http://purl.org/dc/elements/1.1/"
   xmlns:cc="http://creativecommons.org/ns#"
   xmlns:rdf="http://www.w3.org/1999/02/22-rdf-syntax-ns#"
   xmlns:svg="http://www.w3.org/2000/svg"
   xmlns="http://www.w3.org/2000/svg"
   width="18"
   height="18.470825"
   viewBox="0 0 18 18.470825"
   version="1.1"
   id="svg2370">
  <metadata
     id="metadata2376">
    <rdf:RDF>
      <cc:Work
         rdf:about="">
        <dc:format>image/svg+xml</dc:format>
        <dc:type
           rdf:resource="http://purl.org/dc/dcmitype/StillImage" />
        <dc:title></dc:title>
      </cc:Work>
    </rdf:RDF>
  </metadata>
  <defs
     id="defs2374" />
  <g
     id="Dark/DLT_Icons/labelregion_newpart_48px"
     stroke="none"
     stroke-width="1"
     fill="none"
     fill-rule="evenodd"
     transform="matrix(0.42029654,0,0,0.42029654,-1.2608896,-0.84054022)">
    <path
       d="m 34.569188,26.497 c 5.24,-0.41 8.12,-0.64 9.88,1.56 1.38,1.73 1.59,4.58 1.21,6.5 v 0 l -0.03,0.15 c -0.82,3.84 -1.23,5.76 -2.11,7.29 -0.48,0.82 -1.47,2.52 -3.46,3.41 -0.89,0.4 -1.75,0.54 -2.58,0.54 -1.11,0 -2.15,-0.26 -3.07,-0.48 v 0 l -0.32,-0.08 c -2.54,-0.61 -4.94,-1.19 -6.29,-3.36 -0.99,-1.59 -0.71,-3.62 -0.14,-7.66 0.66,-4.73 1.61,-6.04 2.36,-6.65 0.61,-0.49 1.58,-0.98 4.55,-1.22 z m 4.75,1.73 c -1.18,0 -2.68,0.12 -4.59,0.27 -1.38,0.11 -2.2,0.27 -2.7,0.42 -0.49,0.15 -0.66,0.29 -0.75,0.36 -0.65,0.52 -1.23,2.43 -1.64,5.36 -0.48,3.45 -0.75,5.35 -0.14,6.33 0.92,1.48 2.84,1.94 5.06,2.48 v 0 l 0.33,0.08 c 1.7,0.41 3.01,0.66 4.35,0.06 1.41,-0.63 2.12,-1.86 2.54,-2.59 0.73,-1.25 1.12,-3.08 1.89,-6.71 v 0 l 0.03,-0.12 c 0.35,-1.76 0,-3.84 -0.81,-4.86 -0.64,-0.81 -1.72,-1.08 -3.57,-1.08 z m -1.67,3.27 v 3 h 3 v 2 h -3 v 3 h -2 v -3 h -3 v -2 h 3 v -3 z m -25.97,-29.14 c 5.17,-0.44 9.26,-0.78 14.26,0.93 3.56,1.21 6.37,2.17 7.7,5.05 1.28,2.76 0.3,5.63 -1.65,11.35 -1.05,3.11 -1.64,4.83 -2.76,6.38 -2.74,3.76 -6.47,5.15 -10.08,6.49 -3.85,1.44 -6.57,2.45 -8.7,2.45 -1.13,0 -2.1,-0.29 -2.97,-0.96 -2.1,-1.6 -1.74,-4.02 -1.33,-6.82 0.39,-2.64 0.87,-5.93 -0.08,-10.26 -0.5,-2.27 -1.22,-4.04 -1.86,-5.6 -1.01,-2.5 -1.89,-4.65 -0.46,-6.68 1.25,-1.77 3.62,-1.97 7.93,-2.33 z m 13.29,3.77 c -4.41,-1.51 -8.03,-1.21 -13.04,-0.78 -2.83,0.24 -5.28,0.44 -5.73,1.07 -0.44,0.63 -0.13,1.55 0.79,3.81 0.65,1.59 1.46,3.57 2.01,6.1 1.07,4.86 0.52,8.61 0.12,11.34 -0.37,2.52 -0.45,3.51 0.18,4 1.19,0.92 4.22,-0.21 8.81,-1.92 3.33,-1.24 6.48,-2.42 8.69,-5.45 0.86,-1.18 1.36,-2.65 2.35,-5.57 0.177895,-0.523158 0.346482,-1.018837 0.504852,-1.488972 l 0.229778,-0.686288 c 1.183403,-3.560613 1.683791,-5.548424 1.03537,-6.95474 -0.76,-1.64 -2.56,-2.32 -5.95,-3.47 z"
       id="Combined-Shape"
       fill="black" />
  </g>
</svg>
