<?xml version="1.0" encoding="UTF-8" standalone="no"?>
<svg
   xmlns:dc="http://purl.org/dc/elements/1.1/"
   xmlns:cc="http://creativecommons.org/ns#"
   xmlns:rdf="http://www.w3.org/1999/02/22-rdf-syntax-ns#"
   xmlns:svg="http://www.w3.org/2000/svg"
   xmlns="http://www.w3.org/2000/svg"
   width="18"
   height="19.058155"
   viewBox="0 0 18 19.058155"
   version="1.1"
   id="svg2398">
  <metadata
     id="metadata2404">
    <rdf:RDF>
      <cc:Work
         rdf:about="">
        <dc:format>image/svg+xml</dc:format>
        <dc:type
           rdf:resource="http://purl.org/dc/dcmitype/StillImage" />
        <dc:title></dc:title>
      </cc:Work>
    </rdf:RDF>
  </metadata>
  <defs
     id="defs2402" />
  <g
     id="Dark/DLT_Icons/labelregion_hole_48px"
     stroke="none"
     stroke-width="1"
     fill="none"
     fill-rule="evenodd"
     transform="matrix(0.44310987,0,0,0.44310987,-1.7724252,-0.88621974)">
    <path
       d="m 23.333,2 c 3.47,0 6.84,0.41 10.59,1.69 4.64,1.58 8.29,2.83 9.98,6.48 1.62,3.49 0.34,7.25 -2.22,14.76 -1.44,4.24 -2.16,6.36 -3.62,8.36 -3.56,4.9 -8.46,6.72 -13.2,8.49 -5.09,1.9 -8.67,3.23 -11.41,3.23 -1.42,0 -2.61,-0.35 -3.68,-1.17 -2.56,-1.96 -2.12,-4.9 -1.58,-8.63 0.53,-3.56 1.18,-8 -0.11,-13.85 C 7.413,18.28 6.393,15.8 5.583,13.8 4.233,10.48 3.163,7.86 4.913,5.38 6.443,3.21 9.523,2.95 15.113,2.48 18.053,2.23 20.723,2 23.333,2 Z m 9.62,4.53 C 26.983,4.48 22.103,4.9 15.363,5.46 c -4.22,0.36 -7.27,0.62 -8,1.65 -0.77,1.09 -0.22,2.57 1,5.56 0.86,2.1 1.92,4.72 2.65,8.04 1.41,6.4 0.68,11.34 0.15,14.94 -0.49,3.32 -0.67,4.96 0.44,5.81 1.81,1.39 5.72,-0.07 12.21,-2.49 4.53,-1.69 8.8,-3.28 11.83,-7.44 1.19,-1.63 1.86,-3.62 3.2,-7.57 2.3,-6.74 3.45,-10.13 2.34,-12.53 -1.15,-2.48 -3.96,-3.44 -8.23,-4.9 z m -6.38,3.97 c 5.24,-0.41 8.12,-0.64 9.88,1.56 1.38,1.73 1.59,4.58 1.21,6.5 v 0 l -0.03,0.15 c -0.82,3.84 -1.23,5.76 -2.11,7.29 -0.48,0.82 -1.47,2.52 -3.46,3.41 -0.89,0.4 -1.75,0.54 -2.58,0.54 -1.11,0 -2.15,-0.26 -3.07,-0.48 v 0 l -0.32,-0.08 c -2.54,-0.61 -4.94,-1.19 -6.29,-3.36 -0.99,-1.59 -0.71,-3.62 -0.14,-7.66 0.66,-4.73 1.61,-6.04 2.36,-6.65 0.61,-0.49 1.58,-0.98 4.55,-1.22 z m 6.08,8 h -8 v 2 h 8 z"
       id="Combined-Shape"
       fill="black" />
  </g>
</svg>
