<?xml version="1.0" encoding="UTF-8" standalone="no"?>
<svg
   xmlns:dc="http://purl.org/dc/elements/1.1/"
   xmlns:cc="http://creativecommons.org/ns#"
   xmlns:rdf="http://www.w3.org/1999/02/22-rdf-syntax-ns#"
   xmlns:svg="http://www.w3.org/2000/svg"
   xmlns="http://www.w3.org/2000/svg"
   version="1.1"
   id="Layer_1"
   x="0px"
   y="0px"
   width="20"
   height="20.525427"
   viewBox="0 0 40 41.050853"
   xml:space="preserve"><metadata
   id="metadata2348"><rdf:RDF><cc:Work
       rdf:about=""><dc:format>image/svg+xml</dc:format><dc:type
         rdf:resource="http://purl.org/dc/dcmitype/StillImage" /><dc:title></dc:title></cc:Work></rdf:RDF></metadata><defs
   id="defs2346" />
<style
   type="text/css"
   id="style2">
	.st0{fill:#000;}
</style>
<g
   id="g10"
   transform="matrix(0.92943169,0,0,0.94587217,-1.8588633,-1.8917443)">
	<path
   class="st0"
   d="m 44.650961,28.17 c -0.89,-1.92 -2.622463,-2.590423 -5.002463,-3.400423 L 38.82982,24.465349 c -1.79,-0.61 -4.838859,-1.555349 -8.948859,-0.195349 -1.29,0.43 -2.74,0.83 -3.67,2.17 -1.17,1.68 -0.81,3.49 -0.35,5.77 0.06,0.31 0.13,0.64 0.19,0.98 0.6,3.22 0.71,5.45 0.78,7.08 0.1,2.21 0.16,3.68 1.69,4.6 0.62,0.37 1.27,0.53 1.98,0.53 1.22,0 2.64,-0.45 4.44,-1.03 1.64,-0.53 4.7,-1.5 6.77,-4.35 0.75,-1.03 1.14,-2.18 1.85,-4.26 0.12,-0.36 0.24,-0.7 0.35,-1.03 l 0.21,-0.63 c 0.9,-2.77 1.25,-4.38 0.53,-5.93 z m -3.175766,6.747463 c -0.66,1.95 -1.225736,3.051691 -1.795736,3.841691 -1.69,2.32 -3.952342,2.896618 -5.472342,3.376618 -2.61,0.84 -3.441313,1.282465 -4.311313,0.752465 -0.55,-0.33 -0.53139,-0.61866 -0.63139,-2.75866 -0.08,-1.69 -0.08712,-3.756618 -0.717117,-7.116618 -0.07,-0.35 -0.09904,-0.984228 -0.169039,-1.304228 -0.44,-2.2 -0.805766,-3.056617 -0.145766,-3.996617 0.55,-0.79 1.203274,-0.836618 2.313274,-1.206618 1.11,-0.37 2.118078,-0.662114 3.138078,-0.662114 2.15,0 3.123094,0.325772 4.293094,0.725772 l 1.02171,0.365074 c 2.26,0.77 3.104626,1.087463 3.604626,2.177463 0.5,1.13 0.0019,2.495772 -1.128079,5.805772 z"
   id="path4" />
	<path
   id="polygon6"
   class="st0"
   transform="translate(-1.0554998,1.04706)"
   style="fill:black"
   d="M 14,36 H 9 V 29 H 7 v 9 h 7 l -3.18,2.59 1.33,1.49 5.6,-5.08 -4.99,-5.5 -1.49,1.33 z" />
	<path
   class="st0"
   d="M 27.759499,9.7882356 V 3.9470589 h -5.9445 V 5.8941178 L 7.9444997,3.9470589 V 2.0000001 L 2,2 l -1e-7,5.8411767 H 3.9814998 L 7.9444997,11.735294 H 5.9629998 v 5.841177 h 1.9814999 l -1.9814999,3.894118 -1.9815,3e-6 v 5.841177 H 9.9259996 V 25.36471 l 9.9074994,-3.894121 v 1.947059 h 5.9445 v -5.841177 h -1.9815 l 1.9815,-7.7882354 z M 3.9814998,5.8941178 V 3.9470589 h 1.9815 v 1.9470589 z m 3.9629999,9.7352942 v -1.947059 h 1.9814999 v 1.947059 z m 0,9.735295 H 5.9629998 V 23.417648 H 7.9444997 Z M 19.833499,19.52353 9.9259996,23.417648 V 21.470589 H 7.9444997 L 9.9259996,17.576471 H 11.9075 V 11.735294 H 9.9259996 L 5.9629998,7.8411767 H 7.9444997 V 5.8941178 L 21.814999,7.8411767 v 1.9470589 h 1.9815 l -1.9815,7.7882354 h -1.9815 z m 3.963,0 v 1.947059 h -1.9815 V 19.52353 Z m 0,-11.6823533 V 5.8941178 h 1.9815 v 1.9470589 z"
   id="path8"
   style="stroke-width:1.04991" />
</g>
</svg>
