<?xml version="1.0" encoding="UTF-8" standalone="no"?>
<svg
   xmlns:dc="http://purl.org/dc/elements/1.1/"
   xmlns:cc="http://creativecommons.org/ns#"
   xmlns:rdf="http://www.w3.org/1999/02/22-rdf-syntax-ns#"
   xmlns:svg="http://www.w3.org/2000/svg"
   xmlns="http://www.w3.org/2000/svg"
   width="16"
   height="14.297873"
   viewBox="0 0 16 14.297873"
   version="1.1"
   id="svg6">
  <metadata
     id="metadata12">
    <rdf:RDF>
      <cc:Work
         rdf:about="">
        <dc:format>image/svg+xml</dc:format>
        <dc:type
           rdf:resource="http://purl.org/dc/dcmitype/StillImage" />
        <dc:title></dc:title>
      </cc:Work>
    </rdf:RDF>
  </metadata>
  <defs
     id="defs10" />
  <g
     id="Dark/DLT_Icons/Actions/Menu_Navigation/ic_settings_backup_restore_white_48dp"
     stroke="none"
     stroke-width="1"
     fill="none"
     fill-rule="evenodd"
     transform="matrix(0.34042553,0,0,0.34042553,0,-1.0216851)">
    <path
       d="m 26,3.0012 c 11.598427,0 21,9.401573 21,21 0,11.598427 -9.401573,21 -21,21 -3.901982,0 -7.648357,-1.066931 -10.904652,-3.050256 l -0.404461,-0.252678 1.618226,-2.526132 C 19.17838,41.010169 22.513266,42.0012 26,42.0012 c 9.941573,0 18,-8.058427 18,-18 0,-9.941573 -8.058427,-18 -18,-18 -9.263932,0 -16.8926873,6.997304 -17.8896346,15.995279 L 10.6074,19.5012 l 2.121,2.121 -4.245,4.242 L 6.62,24.0012 H 6.619 l 1.865,1.8642 -2.121,2.118 -6.363,-6.36 2.121,-2.121 2.9361191,2.937989 C 5.8556111,11.570925 14.926567,3.0012 26,3.0012 Z M 25.5,19.5 c 2.485232,0 4.5,2.013377 4.5,4.5 0,2.486623 -2.014768,4.5 -4.5,4.5 -2.485232,0 -4.5,-2.013377 -4.5,-4.5 0,-2.486623 2.014768,-4.5 4.5,-4.5 z"
       id="Combined-Shape"
       fill="black" />
  </g>
</svg>
