<?xml version="1.0" encoding="UTF-8" standalone="no"?>
<svg
   xmlns:dc="http://purl.org/dc/elements/1.1/"
   xmlns:cc="http://creativecommons.org/ns#"
   xmlns:rdf="http://www.w3.org/1999/02/22-rdf-syntax-ns#"
   xmlns:svg="http://www.w3.org/2000/svg"
   xmlns="http://www.w3.org/2000/svg"
   width="16"
   height="16"
   viewBox="0 0 16 16"
   version="1.1"
   id="svg6">
  <metadata
     id="metadata12">
    <rdf:RDF>
      <cc:Work
         rdf:about="">
        <dc:format>image/svg+xml</dc:format>
        <dc:type
           rdf:resource="http://purl.org/dc/dcmitype/StillImage" />
        <dc:title></dc:title>
      </cc:Work>
    </rdf:RDF>
  </metadata>
  <defs
     id="defs10" />
  <path
     style="stroke-width:0.888889"
     d="M 14.222222,1.7777778 V 14.222222 H 1.7777778 V 1.7777778 H 14.222222 M 15.2,0 H 0.8 C 0.35555556,0 0,0.35555556 0,0.8 V 15.2 C 0,15.555556 0.35555556,16 0.8,16 H 15.2 C 15.555556,16 16,15.555556 16,15.2 V 0.8 C 16,0.35555556 15.555556,0 15.2,0 Z M 7.1111111,3.5555556 H 12.444444 V 5.3333333 H 7.1111111 Z m 0,3.5555555 H 12.444444 V 8.8888889 H 7.1111111 Z m 0,3.5555559 h 5.3333329 v 1.777777 H 7.1111111 Z M 3.5555556,3.5555556 H 5.3333333 V 5.3333333 H 3.5555556 Z m 0,3.5555555 H 5.3333333 V 8.8888889 H 3.5555556 Z m 0,3.5555559 h 1.7777777 v 1.777777 H 3.5555556 Z"
     id="path2" />
  <path
     fill="none"
     d="M -3,-3 H 21 V 21 H -3 Z"
     id="path4" />
</svg>
