<?xml version="1.0" encoding="UTF-8" standalone="no"?>
<svg
   xmlns:dc="http://purl.org/dc/elements/1.1/"
   xmlns:cc="http://creativecommons.org/ns#"
   xmlns:rdf="http://www.w3.org/1999/02/22-rdf-syntax-ns#"
   xmlns:svg="http://www.w3.org/2000/svg"
   xmlns="http://www.w3.org/2000/svg"
   xmlns:sodipodi="http://sodipodi.sourceforge.net/DTD/sodipodi-0.dtd"
   xmlns:inkscape="http://www.inkscape.org/namespaces/inkscape"
   width="24"
   height="17.860214"
   viewBox="0 0 24 17.860214"
   version="1.1"
   id="svg752"
   sodipodi:docname="rotate_labels_clockwise.svg"
   inkscape:version="1.0.1 (3bc2e813f5, 2020-09-07)">
  <metadata
     id="metadata758">
    <rdf:RDF>
      <cc:Work
         rdf:about="">
        <dc:format>image/svg+xml</dc:format>
        <dc:type
           rdf:resource="http://purl.org/dc/dcmitype/StillImage" />
        <dc:title>Dark/DLT_Icons/Actions/Editor/rotate clockwise</dc:title>
      </cc:Work>
    </rdf:RDF>
  </metadata>
  <defs
     id="defs756" />
  <sodipodi:namedview
     pagecolor="#ffffff"
     bordercolor="#666666"
     borderopacity="1"
     objecttolerance="10"
     gridtolerance="10"
     guidetolerance="10"
     inkscape:pageopacity="0"
     inkscape:pageshadow="2"
     inkscape:window-width="640"
     inkscape:window-height="480"
     id="namedview754"
     showgrid="false"
     fit-margin-top="0"
     fit-margin-left="0"
     fit-margin-right="0"
     fit-margin-bottom="0"
     inkscape:zoom="21.75"
     inkscape:cx="7.1147425"
     inkscape:cy="15.9995"
     inkscape:current-layer="svg752"
     inkscape:document-rotation="0" />
  <title
     id="title748">Dark/DLT_Icons/Actions/Editor/rotate clockwise</title>
  <g
     id="Dark/DLT_Icons/Actions/Editor/rotate-clockwise"
     stroke="none"
     stroke-width="1"
     fill="none"
     fill-rule="evenodd"
     transform="matrix(0.55813694,0,0,0.55813694,-1.6745224,-4.4653746)">
    <path
       d="m 9.4782,11.9562 2.159,2.256 4.32,4.513 -2.16,2.256 -2.806,-2.932 v 2.88 c 0,8.851 7.152,16.051 15.948,16.063 v 0 3.008 c -10.445,-0.012 -18.938,-8.562 -18.938,-19.071 v 0 -2.917 l -2.842,2.969 -2.159,-2.256 z M 45.9044,8.0005 v 12.112 l 0.096,0.097 -0.096,0.096 v 9.73 H 18.9534 V 8.0005 Z m -6.738,9.599 -7.509,7.538 -5.867,-3.926 -3.843,3.214 v 2.606 h 20.962 v -5.675 z m 3.743,-6.595 h -20.962 v 9.51 l 3.644,-3.047 5.684,3.802 7.891,-7.919 3.743,3.757 z"
       id="Combined-Shape"
       fill="black" />
  </g>
</svg>
