<?xml version="1.0" encoding="UTF-8" standalone="no"?>
<svg
   xmlns:dc="http://purl.org/dc/elements/1.1/"
   xmlns:cc="http://creativecommons.org/ns#"
   xmlns:rdf="http://www.w3.org/1999/02/22-rdf-syntax-ns#"
   xmlns:svg="http://www.w3.org/2000/svg"
   xmlns="http://www.w3.org/2000/svg"
   xmlns:sodipodi="http://sodipodi.sourceforge.net/DTD/sodipodi-0.dtd"
   xmlns:inkscape="http://www.inkscape.org/namespaces/inkscape"
   width="21.141872"
   height="24"
   viewBox="0 0 21.141872 24"
   version="1.1"
   id="svg6"
   sodipodi:docname="counter_clockwise.svg"
   inkscape:version="1.0.1 (3bc2e813f5, 2020-09-07)">
  <metadata
     id="metadata12">
    <rdf:RDF>
      <cc:Work
         rdf:about="">
        <dc:format>image/svg+xml</dc:format>
        <dc:type
           rdf:resource="http://purl.org/dc/dcmitype/StillImage" />
        <dc:title>Dark/DLT_Icons/Actions/Editor/Counter clockwise</dc:title>
      </cc:Work>
    </rdf:RDF>
  </metadata>
  <defs
     id="defs10" />
  <sodipodi:namedview
     pagecolor="#ffffff"
     bordercolor="#666666"
     borderopacity="1"
     objecttolerance="10"
     gridtolerance="10"
     guidetolerance="10"
     inkscape:pageopacity="0"
     inkscape:pageshadow="2"
     inkscape:window-width="640"
     inkscape:window-height="480"
     id="namedview8"
     showgrid="false"
     fit-margin-top="0"
     fit-margin-left="0"
     fit-margin-right="0"
     fit-margin-bottom="0"
     inkscape:zoom="21"
     inkscape:cx="4.6186476"
     inkscape:cy="22.0004"
     inkscape:current-layer="svg6" />
  <title
     id="title2">Dark/DLT_Icons/Actions/Editor/Counter clockwise</title>
  <g
     id="Dark/DLT_Icons/Actions/Editor/Counter-clockwise"
     stroke="none"
     stroke-width="1"
     fill="none"
     fill-rule="evenodd"
     transform="matrix(0.55570992,0,0,0.55570992,-2.7787719,-1.1111976)">
    <path
       d="m 26.7944,1.9996 6.751,6.5 -6.751,6.5 -2.25,-2.166 2.794,-2.691 h -3.315 c -8.835,0 -16.023,7.188 -16.023,16.023 0,8.835 7.188,16.022 16.023,16.022 0.767,0 1.535,-0.053 2.283,-0.161 v 0 l 0.424,2.971 c -0.889,0.126 -1.799,0.19 -2.707,0.19 -10.49,0 -19.023,-8.533 -19.023,-19.022 0,-10.489 8.533,-19.023 19.023,-19.023 v 0 h 3.611 l -3.09,-2.976 z m 7.3146,36.6151 1.891,2.33 c -1.48,1.2 -3.122,2.168 -4.882,2.875 v 0 l -1.119,-2.783 c 1.481,-0.596 2.864,-1.41 4.11,-2.422 z m 4.9595,-6.925 2.815,1.035 c -0.655,1.783 -1.572,3.454 -2.726,4.966 v 0 l -2.385,-1.82 c 0.972,-1.273 1.744,-2.681 2.296,-4.181 z m 3.6527,-9.0407 c 0.215,1.152 0.324,2.335 0.324,3.517 0,0.715 -0.04,1.436 -0.119,2.141 v 0 l -2.981,-0.334 c 0.067,-0.595 0.1,-1.203 0.1,-1.807 0,-0.997 -0.092,-1.996 -0.273,-2.966 v 0 z m -4.8081,-9.2822 c 0.821,0.837 1.57,1.759 2.228,2.74 0.399,0.594 0.767,1.215 1.094,1.845 v 0 l -2.662,1.383 c -0.276,-0.531 -0.587,-1.055 -0.923,-1.557 -0.556,-0.828 -1.188,-1.606 -1.88,-2.311 v 0 z"
       id="Combined-Shape"
       fill="black"
       transform="matrix(-1,0,0,1,48.0456,0)" />
  </g>
</svg>
