<?xml version="1.0" encoding="UTF-8" standalone="no"?>
<svg
   xmlns:dc="http://purl.org/dc/elements/1.1/"
   xmlns:cc="http://creativecommons.org/ns#"
   xmlns:rdf="http://www.w3.org/1999/02/22-rdf-syntax-ns#"
   xmlns:svg="http://www.w3.org/2000/svg"
   xmlns="http://www.w3.org/2000/svg"
   xmlns:sodipodi="http://sodipodi.sourceforge.net/DTD/sodipodi-0.dtd"
   xmlns:inkscape="http://www.inkscape.org/namespaces/inkscape"
   height="17.49"
   viewBox="0 0 17.49 17.49"
   width="17.49"
   version="1.1"
   id="svg6"
   sodipodi:docname="search.svg"
   inkscape:version="0.92.4 (5da689c313, 2019-01-14)">
  <metadata
     id="metadata12">
    <rdf:RDF>
      <cc:Work
         rdf:about="">
        <dc:format>image/svg+xml</dc:format>
        <dc:type
           rdf:resource="http://purl.org/dc/dcmitype/StillImage" />
        <dc:title></dc:title>
      </cc:Work>
    </rdf:RDF>
  </metadata>
  <defs
     id="defs10" />
  <sodipodi:namedview
     pagecolor="#ffffff"
     bordercolor="#666666"
     borderopacity="1"
     objecttolerance="10"
     gridtolerance="10"
     guidetolerance="10"
     inkscape:pageopacity="0"
     inkscape:pageshadow="2"
     inkscape:window-width="640"
     inkscape:window-height="480"
     id="namedview8"
     showgrid="false"
     fit-margin-top="0"
     fit-margin-left="0"
     fit-margin-right="0"
     fit-margin-bottom="0"
     inkscape:zoom="30.906459"
     inkscape:cx="5.0726001"
     inkscape:cy="10.926322"
     inkscape:current-layer="svg6" />
  <path
     d="M 12.5,11 H 11.71 L 11.43,10.73 C 12.41,9.59 13,8.11 13,6.5 13,2.91 10.09,0 6.5,0 2.91,0 0,2.91 0,6.5 0,10.09 2.91,13 6.5,13 8.11,13 9.59,12.41 10.73,11.43 L 11,11.71 v 0.79 l 5,4.99 1.49,-1.49 z m -6,0 C 4.01,11 2,8.99 2,6.5 2,4.01 4.01,2 6.5,2 8.99,2 11,4.01 11,6.5 11,8.99 8.99,11 6.5,11 Z"
     id="path2"
     inkscape:connector-curvature="0" />
  <path
     d="M -3,-3 H 21 V 21 H -3 Z"
     id="path4"
     inkscape:connector-curvature="0"
     style="fill:none" />
</svg>
