<?xml version="1.0" encoding="UTF-8" standalone="no"?>
<svg
   xmlns:dc="http://purl.org/dc/elements/1.1/"
   xmlns:cc="http://creativecommons.org/ns#"
   xmlns:rdf="http://www.w3.org/1999/02/22-rdf-syntax-ns#"
   xmlns:svg="http://www.w3.org/2000/svg"
   xmlns="http://www.w3.org/2000/svg"
   xmlns:sodipodi="http://sodipodi.sourceforge.net/DTD/sodipodi-0.dtd"
   xmlns:inkscape="http://www.inkscape.org/namespaces/inkscape"
   width="14"
   height="14"
   viewBox="0 0 14 14"
   version="1.1"
   id="svg321"
   sodipodi:docname="preferences.svg"
   inkscape:version="1.0.1 (3bc2e813f5, 2020-09-07)">
  <metadata
     id="metadata327">
    <rdf:RDF>
      <cc:Work
         rdf:about="">
        <dc:format>image/svg+xml</dc:format>
        <dc:type
           rdf:resource="http://purl.org/dc/dcmitype/StillImage" />
        <dc:title>Light/HDevelop/01 - menu/02 - Edit/preferences</dc:title>
      </cc:Work>
    </rdf:RDF>
  </metadata>
  <defs
     id="defs325" />
  <sodipodi:namedview
     pagecolor="#ffffff"
     bordercolor="#666666"
     borderopacity="1"
     objecttolerance="10"
     gridtolerance="10"
     guidetolerance="10"
     inkscape:pageopacity="0"
     inkscape:pageshadow="2"
     inkscape:window-width="640"
     inkscape:window-height="480"
     id="namedview323"
     showgrid="false"
     fit-margin-top="0"
     fit-margin-left="0"
     fit-margin-right="0"
     fit-margin-bottom="0"
     inkscape:zoom="65.25"
     inkscape:cx="2.3716475"
     inkscape:cy="7"
     inkscape:current-layer="svg321" />
  <title
     id="title317">Light/HDevelop/01 - menu/02 - Edit/preferences</title>
  <g
     id="Light/HDevelop/01---menu/02---Edit/preferences"
     stroke="none"
     stroke-width="1"
     fill="none"
     fill-rule="evenodd"
     transform="translate(-1,-1)">
    <path
       d="M 8,11.000375 C 6.345375,11.000375 4.999625,9.654625 4.999625,8 4.999625,6.34625 6.345375,5.0005 8,5.0005 c 1.654625,0 3.000375,1.34575 3.000375,2.9995 0,1.654625 -1.34575,3.000375 -3.000375,3.000375 z m 7,-2.00025 V 7.00075 H 12.899125 C 12.76875,6.362875 12.515,5.771375 12.16675,5.24725 L 13.656875,3.758 12.242875,2.343125 10.75275,3.83325 C 10.228625,3.485875 9.637125,3.23125 9.000125,3.10175 V 1 h -2.00025 v 2.10175 c -0.637,0.1295 -1.2285,0.384125 -1.752625,0.7315 L 3.757125,2.343125 2.343125,3.758 3.83325,5.24725 C 3.485,5.771375 3.23125,6.362875 3.100875,7.00075 H 1 v 1.999375 h 2.100875 c 0.130375,0.637 0.384125,1.2285 0.7315,1.7535 l -1.48925,1.48925 1.414,1.414 1.490125,-1.48925 c 0.524125,0.3465 1.115625,0.601125 1.752625,0.7315 V 15 h 2.00025 v -2.100875 c 0.637,-0.130375 1.2285,-0.385 1.752625,-0.7315 l 1.490125,1.48925 1.414,-1.414 -1.48925,-1.48925 c 0.347375,-0.525 0.601125,-1.1165 0.7315,-1.7535 z"
       id="Fill-1"
       fill="black" />
  </g>
</svg>
