<?xml version="1.0" encoding="UTF-8"?>
<svg width="16px" height="16px" viewBox="0 0 16 16" version="1.1" xmlns="http://www.w3.org/2000/svg" xmlns:xlink="http://www.w3.org/1999/xlink">
    <!-- Generator: Sketch 64 (93537) - https://sketch.com -->
    <title>Light/MERLIC/pi_setup/device_tab</title>
    <desc>Created with Sketch.</desc>
    <g id="Light/MERLIC/pi_setup/device_tab" stroke="none" stroke-width="1" fill="none" fill-rule="evenodd">
        <path d="M10,9 L10,10.051 C10.318,10.115 10.614,10.242 10.876,10.416 L10.876,10.416 L11.621,9.672 L12.329,10.379 L11.583,11.123 C11.757,11.386 11.884,11.682 11.949,12 L11.949,12 L13,12 L13,13 L11.949,13 C11.884,13.318 11.757,13.614 11.583,13.877 L11.583,13.877 L12.329,14.621 L11.621,15.328 L10.876,14.584 C10.614,14.758 10.318,14.885 10,14.949 L10,14.949 L10,16 L9,16 L9,14.949 C8.682,14.885 8.386,14.758 8.124,14.584 L8.124,14.584 L7.379,15.328 L6.671,14.621 L7.417,13.877 C7.243,13.614 7.116,13.318 7.051,13 L7.051,13 L6,13 L6,12 L7.051,12 C7.116,11.682 7.243,11.386 7.417,11.123 L7.417,11.123 L6.671,10.379 L7.379,9.672 L8.124,10.416 C8.386,10.242 8.682,10.115 9,10.051 L9,10.051 L9,9 L10,9 Z M9.5,11 C8.673,11 8,11.673 8,12.5 C8,13.327 8.673,14 9.5,14 C10.327,14 11,13.327 11,12.5 C11,11.673 10.327,11 9.5,11 Z M4,3 L4,4.051 C4.318,4.115 4.614,4.242 4.876,4.416 L4.876,4.416 L5.621,3.672 L6.329,4.379 L5.583,5.123 C5.757,5.386 5.884,5.682 5.949,6 L5.949,6 L7,6 L7,7 L5.949,7 C5.884,7.318 5.757,7.614 5.583,7.877 L5.583,7.877 L6.329,8.621 L5.621,9.328 L4.876,8.584 C4.614,8.758 4.318,8.885 4,8.949 L4,8.949 L4,10 L3,10 L3,8.949 C2.682,8.885 2.386,8.758 2.124,8.584 L2.124,8.584 L1.379,9.328 L0.671,8.621 L1.417,7.877 C1.243,7.614 1.116,7.318 1.051,7 L1.051,7 L0,7 L0,6 L1.051,6 C1.116,5.682 1.243,5.386 1.417,5.123 L1.417,5.123 L0.671,4.379 L1.379,3.672 L2.124,4.416 C2.386,4.242 2.682,4.115 3,4.051 L3,4.051 L3,3 L4,3 Z M12,0 L12,1.051 C12.59,1.137 13.129,1.364 13.586,1.707 L13.586,1.707 L14.329,0.965 L15.036,1.672 L14.293,2.414 C14.636,2.871 14.864,3.41 14.949,4 L14.949,4 L16,4 L16,5 L14.949,5 C14.864,5.59 14.636,6.129 14.293,6.586 L14.293,6.586 L15.036,7.328 L14.329,8.035 L13.586,7.293 C13.129,7.636 12.59,7.863 12,7.949 L12,7.949 L12,9 L11,9 L11,7.949 C10.41,7.863 9.871,7.636 9.414,7.293 L9.414,7.293 L8.671,8.035 L7.964,7.328 L8.707,6.586 C8.364,6.129 8.136,5.59 8.051,5 L8.051,5 L7,5 L7,4 L8.051,4 C8.136,3.41 8.364,2.871 8.707,2.414 L8.707,2.414 L7.964,1.672 L8.671,0.965 L9.414,1.707 C9.871,1.364 10.41,1.137 11,1.051 L11,1.051 L11,0 L12,0 Z M3.5,5 C2.673,5 2,5.673 2,6.5 C2,7.327 2.673,8 3.5,8 C4.327,8 5,7.327 5,6.5 C5,5.673 4.327,5 3.5,5 Z M11.5,2 C10.122,2 9,3.121 9,4.5 C9,5.879 10.122,7 11.5,7 C12.878,7 14,5.879 14,4.5 C14,3.121 12.878,2 11.5,2 Z" id="Combined-Shape" fill="#000"></path>
    </g>
</svg>
