<?xml version="1.0" encoding="UTF-8" standalone="no"?>
<svg
   id="Layer_1"
   data-name="Layer 1"
   viewBox="0 0 22 22"
   version="1.1"
   sodipodi:docname="show_boundingbox.svg"
   inkscape:version="1.3 (0e150ed6c4, 2023-07-21)"
   width="22"
   height="22"
   xmlns:inkscape="http://www.inkscape.org/namespaces/inkscape"
   xmlns:sodipodi="http://sodipodi.sourceforge.net/DTD/sodipodi-0.dtd"
   xmlns="http://www.w3.org/2000/svg"
   xmlns:svg="http://www.w3.org/2000/svg">
  <sodipodi:namedview
     id="namedview8"
     pagecolor="#ffffff"
     bordercolor="#666666"
     borderopacity="1.0"
     inkscape:showpageshadow="2"
     inkscape:pageopacity="0.0"
     inkscape:pagecheckerboard="0"
     inkscape:deskcolor="#d1d1d1"
     inkscape:zoom="36.041667"
     inkscape:cx="11.986127"
     inkscape:cy="12"
     inkscape:current-layer="Layer_1" />
  <defs
     id="defs1">
    <style
       id="style1">&#10;      .cls-1, .cls-2 {&#10;        fill: #000;&#10;      }&#10;&#10;      .cls-2 {&#10;        fill-rule: evenodd;&#10;      }&#10;    </style>
  </defs>
  <g
     id="g9"
     transform="scale(0.91666667)">
    <g
       id="g4">
      <polygon
         class="cls-1"
         points="24,21 24,24 21,24 21,22 22,22 22,21 "
         id="polygon1" />
      <path
         class="cls-1"
         d="m 17.4,24 h -3.6 v -2 h 3.6 z m -7.2,0 H 6.6 v -2 h 3.6 z"
         id="path1" />
      <polygon
         class="cls-1"
         points="3,22 3,24 0,24 0,21 2,21 2,22 "
         id="polygon2" />
      <path
         class="cls-1"
         d="M 2,17.4 H 0 V 13.8 H 2 Z M 2,10.2 H 0 V 6.6 h 2 z"
         id="path2" />
      <polygon
         class="cls-1"
         points="2,2 2,3 0,3 0,0 3,0 3,2 "
         id="polygon3" />
      <path
         class="cls-1"
         d="M 17.4,2 H 13.8 V 0 h 3.6 z M 10.2,2 H 6.6 V 0 h 3.6 z"
         id="path3" />
      <polygon
         class="cls-1"
         points="24,0 24,3 22,3 22,2 21,2 21,0 "
         id="polygon4" />
      <path
         class="cls-1"
         d="m 24,17.4 h -2 v -3.6 h 2 z m 0,-7.2 H 22 V 6.6 h 2 z"
         id="path4" />
    </g>
    <g
       id="g8">
      <path
         class="cls-1"
         d="m 13.47,21 c -0.46,0 -0.92,-0.08 -1.36,-0.24 l -0.08,-0.03 c 0,0 -0.04,0 -0.13,0.04 v 0 C 9.11,21.7 5.97,19.57 4.59,15.81 3.8,13.65 3.8,11.35 4.59,9.64 5.12,8.5 5.95,7.7 7.01,7.32 c 1.03,-0.37 2.16,-0.3 3.28,0.21 1.12,0.51 2.34,0.51 3.45,0 1.12,-0.51 2.25,-0.58 3.28,-0.21 1.05,0.38 1.89,1.18 2.42,2.32 0.79,1.7 0.8,4.01 0,6.17 -1.15,3.15 -3.6,5.19 -5.97,5.19 z m -0.66,-2.11 c 1.63,0.56 3.8,-1.15 4.76,-3.76 0.61,-1.67 0.63,-3.4 0.06,-4.63 -0.21,-0.45 -0.6,-1.04 -1.28,-1.28 -0.66,-0.24 -1.32,-0.05 -1.76,0.15 -1.65,0.75 -3.47,0.75 -5.12,0 C 9.03,9.17 8.37,8.98 7.71,9.22 7.03,9.47 6.64,10.05 6.43,10.5 c -0.58,1.23 -0.55,2.97 0.06,4.63 1,2.72 3.06,4.32 4.8,3.75 0.74,-0.25 1.31,-0.08 1.54,0.02 z"
         id="path5" />
      <g
         id="g7">
        <path
           class="cls-2"
           d="m 12.35,5.45 c 0.39,0.38 0.39,1.01 0,1.39 -0.39,0.38 -1.01,0.38 -1.4,0 -0.39,-0.38 -0.69,-2.11 -0.69,-2.11 0,0 1.7,0.34 2.09,0.72 z"
           id="path6" />
        <path
           class="cls-1"
           d="M 11.65,8.13 C 11.14,8.13 10.63,7.94 10.25,7.55 9.74,7.05 9.44,5.83 9.28,4.9 L 9.03,3.46 10.46,3.75 c 0.91,0.18 2.1,0.5 2.6,0.99 v 0 c 0.38,0.38 0.58,0.87 0.58,1.41 0,0.54 -0.21,1.03 -0.58,1.4 -0.39,0.38 -0.9,0.58 -1.41,0.58 z m 0.02,-1.99 c 0,0 0.02,0.04 0.03,0.05 l 0.65,-0.74 -0.68,0.68 z"
           id="path7" />
      </g>
    </g>
  </g>
</svg>
