<?xml version="1.0" encoding="UTF-8" standalone="no"?>
<svg
   xmlns:dc="http://purl.org/dc/elements/1.1/"
   xmlns:cc="http://creativecommons.org/ns#"
   xmlns:rdf="http://www.w3.org/1999/02/22-rdf-syntax-ns#"
   xmlns:svg="http://www.w3.org/2000/svg"
   xmlns="http://www.w3.org/2000/svg"
   id="svg15"
   version="1.1"
   viewBox="0 0 6.3499998 5.1954599"
   height="5.1954598mm"
   width="6.3499999mm">
  <defs
     id="defs9" />
  <metadata
     id="metadata12">
    <rdf:RDF>
      <cc:Work
         rdf:about="">
        <dc:format>image/svg+xml</dc:format>
        <dc:type
           rdf:resource="http://purl.org/dc/dcmitype/StillImage" />
        <dc:title></dc:title>
      </cc:Work>
    </rdf:RDF>
  </metadata>
  <g
     transform="translate(-185.46662,-262.64368)"
     id="layer1">
    <path
       id="path28"
       d="m 185.61094,267.69482 c -0.13831,-0.13831 -0.14432,-0.24053 -0.14432,-2.45341 0,-2.21288 0.006,-2.31511 0.14432,-2.45341 0.1395,-0.13951 0.24053,-0.14432 3.03068,-0.14432 2.79015,0 2.89117,0.005 3.03068,0.14432 0.13831,0.1383 0.14432,0.24053 0.14432,2.45341 0,2.21288 -0.006,2.3151 -0.14432,2.45341 -0.13951,0.1395 -0.24053,0.14432 -3.03068,0.14432 -2.79015,0 -2.89118,-0.005 -3.03068,-0.14432 z m 5.62841,-2.45341 v -2.02046 h -2.59773 -2.59773 v 2.02046 2.02045 h 2.59773 2.59773 z m -2.88637,0.72159 v -0.43296 h -0.43295 -0.43296 v -0.28863 -0.28864 h 0.43296 0.43295 v -0.43295 -0.43296 h 0.28864 0.28863 v 0.43296 0.43295 h 0.43296 0.43296 v 0.28864 0.28863 h -0.43296 -0.43296 v 0.43296 0.43295 h -0.28863 -0.28864 z"
       style="fill:#000000;stroke-width:1" />
  </g>
</svg>
