<?xml version="1.0" encoding="UTF-8"?>
<svg id="a" data-name="Layer 1" xmlns="http://www.w3.org/2000/svg" width="16" height="16" viewBox="0 0 16 16">
  <defs>
    <style>
      .b {
        fill: #000;
      }
    </style>
  </defs>
  <path class="b" d="M15.9202,8.8809c-.0986,.541-.5078,1.0049-1.0693,1.2129-.7061,.2627-2.6084,.2061-3.6924,.1475,.7568,3.5439-.707,5.043-1.0244,5.3203-.4619,.4023-1.1914,.5459-1.7744,.3545-.5342-.1777-.8975-.6006-1.0254-1.1914-.0703-.3301-.1045-.708-.1396-1.1084-.0869-.9727-.1846-2.0752-.8379-2.8408-.4573-.5351-.7527-.9399-.9509-1.243-.3997,.4276-.964,.699-1.5942,.699h-1.623c-1.207,0-2.1885-.9814-2.1885-2.1885V2.4199C0,1.2129,.9814,.2315,2.1885,.2315h1.623c.7367,0,1.386,.3682,1.7828,.9276,1.6082-.4975,3.4559-.696,4.9987-.696,1.4199,0,2.5771,.1602,3.0381,.3887,.8506,.4189,.9932,1.2383,.8662,1.8887,.4414,.2539,.7188,.5898,.8262,1.001,.1211,.4639-.0117,.8975-.1611,1.2002,.373,.3682,.585,.7822,.6328,1.2344,.0498,.4785-.0996,.8818-.2451,1.1494,.2305,.3535,.5205,.9502,.3701,1.5557ZM5,2.4199c0-.6553-.5332-1.1885-1.1885-1.1885h-1.623c-.6553,0-1.1885,.5332-1.1885,1.1885v5.623c0,.6553,.5332,1.1885,1.1885,1.1885h1.623c.6553,0,1.1885-.5332,1.1885-1.1885V2.4199ZM14.5608,7.0128c.0029-.0029,.2852-.3398,.2393-.7402-.0332-.2861-.2305-.5654-.5859-.8291l-.4238-.3135,.3369-.4072c.0674-.0811,.3037-.4434,.2285-.7285-.0654-.252-.3857-.4229-.6426-.5215l-.4883-.1924,.2119-.4805c.0566-.127,.3105-.7764-.248-1.0518-.724-.3587-4.3668-.5236-7.2227,.3361,.0172,.1102,.0339,.2208,.0339,.3358v5.623c0,.1523-.016,.3008-.0457,.4444,.2842,.4711,.6878,1.0833,1.1622,1.6387,.8613,1.0078,.9795,2.335,1.0742,3.4014,.0322,.3662,.0605,.7051,.1221,.9873,.0518,.2402,.1699,.3877,.3613,.4521,.2842,.0908,.6289-.0078,.8027-.1592,.1582-.1377,1.5195-1.4502,.5527-4.9766l-.1865-.6816,.7051,.0508c1.2402,.0928,3.4082,.1602,3.9551-.0439,.2285-.085,.3984-.2627,.4395-.4844,.0918-.3711-.2754-.8828-.3789-1l-.2832-.3291,.2803-.3301Z"/>
</svg>