<?xml version="1.0" encoding="UTF-8" standalone="no"?>
<svg
   xmlns:dc="http://purl.org/dc/elements/1.1/"
   xmlns:cc="http://creativecommons.org/ns#"
   xmlns:rdf="http://www.w3.org/1999/02/22-rdf-syntax-ns#"
   xmlns:svg="http://www.w3.org/2000/svg"
   xmlns="http://www.w3.org/2000/svg"
   width="20"
   height="18.666666"
   viewBox="0 0 20 18.666666"
   version="1.1"
   id="svg32">
  <metadata
     id="metadata38">
    <rdf:RDF>
      <cc:Work
         rdf:about="">
        <dc:format>image/svg+xml</dc:format>
        <dc:type
           rdf:resource="http://purl.org/dc/dcmitype/StillImage" />
        <dc:title></dc:title>
      </cc:Work>
    </rdf:RDF>
  </metadata>
  <defs
     id="defs36" />
  <g
     id="Dark/DLT_Icons/Actions/Editor/ic_undo_white_48dp"
     stroke="none"
     stroke-width="1"
     fill="none"
     fill-rule="evenodd"
     transform="matrix(0.44444444,0,0,0.44444444,-0.44444444,-1.3333333)">
    <path
       d="m 19,24 h 3 c 0.18,0 11.376,0.075 18.786,7.542 C 38.206,23.562 32.614,15 20.5,15 H 19 V 9 L 5.5,19.5 19,30 Z M 43,45 C 43,44.874 42.997,44.46 42.967,43.818 42.166,29.592 26.929,27.33 21.976,26.973 L 22,36 1,19.5 22,3 v 9.042 C 41.59,13.089 45.193,34.671 45.853,42.333 45.949,43.185 46,44.07 46,45 Z"
       id="Fill-1"
       fill="black" />
  </g>
</svg>
