<?xml version="1.0" encoding="UTF-8" standalone="no"?>
<svg
   xmlns:dc="http://purl.org/dc/elements/1.1/"
   xmlns:cc="http://creativecommons.org/ns#"
   xmlns:rdf="http://www.w3.org/1999/02/22-rdf-syntax-ns#"
   xmlns:svg="http://www.w3.org/2000/svg"
   xmlns="http://www.w3.org/2000/svg"
   xmlns:sodipodi="http://sodipodi.sourceforge.net/DTD/sodipodi-0.dtd"
   xmlns:inkscape="http://www.inkscape.org/namespaces/inkscape"
   width="18"
   height="18"
   viewBox="0 0 18 18"
   version="1.1"
   id="svg601"
   sodipodi:docname="zoom_in.svg"
   inkscape:version="1.0.1 (3bc2e813f5, 2020-09-07)">
  <metadata
     id="metadata607">
    <rdf:RDF>
      <cc:Work
         rdf:about="">
        <dc:format>image/svg+xml</dc:format>
        <dc:type
           rdf:resource="http://purl.org/dc/dcmitype/StillImage" />
        <dc:title>Dark/DLT_Icons/Actions/Editor/ic_zoom_in_white_48dp</dc:title>
      </cc:Work>
    </rdf:RDF>
  </metadata>
  <defs
     id="defs605" />
  <sodipodi:namedview
     pagecolor="#ffffff"
     bordercolor="#666666"
     borderopacity="1"
     objecttolerance="10"
     gridtolerance="10"
     guidetolerance="10"
     inkscape:pageopacity="0"
     inkscape:pageshadow="2"
     inkscape:window-width="640"
     inkscape:window-height="480"
     id="namedview603"
     showgrid="false"
     fit-margin-top="0"
     fit-margin-left="0"
     fit-margin-right="0"
     fit-margin-bottom="0"
     inkscape:zoom="21.75"
     inkscape:cx="7.1149425"
     inkscape:cy="21"
     inkscape:current-layer="svg601" />
  <title
     id="title597">Dark/DLT_Icons/Actions/Editor/ic_zoom_in_white_48dp</title>
  <g
     id="Dark/DLT_Icons/Actions/Editor/ic_zoom_in_white_48dp"
     stroke="none"
     stroke-width="1"
     fill="none"
     fill-rule="evenodd"
     transform="matrix(0.42857143,0,0,0.42857143,-1.2857143,-1.2857143)">
    <path
       d="M 28.5,3 C 37.599,3 45,10.404 45,19.5 45,28.596 37.599,36 28.5,36 24.489,36 20.811,34.56 17.949,32.172 v 0 L 5.121,45 3,42.879 15.828,30.051 C 13.44,27.189 12,23.511 12,19.5 12,10.404 19.401,3 28.5,3 Z m 0,3 C 21.057,6 15,12.057 15,19.5 15,26.943 21.057,33 28.5,33 35.943,33 42,26.943 42,19.5 42,12.057 35.943,6 28.5,6 Z m 1.5,6 v 6 h 6 v 3 h -6 v 6 h -3 v -6 h -6 v -3 h 6 v -6 z"
       id="Combined-Shape"
       fill="black" />
  </g>
</svg>
